<?xml version="1.0" standalone="no"?>
<!DOCTYPE svg PUBLIC "-//W3C//DTD SVG 20010904//EN"
 "http://www.w3.org/TR/2001/REC-SVG-20010904/DTD/svg10.dtd">
<svg version="1.0" xmlns="http://www.w3.org/2000/svg"
 width="1280.000000pt" height="838.000000pt" viewBox="0 0 1280.000000 838.000000"
 preserveAspectRatio="xMidYMid meet">
<metadata>
Created by potrace 1.15, written by Peter Selinger 2001-2017
</metadata>
<g transform="translate(0.000000,838.000000) scale(0.100000,-0.100000)"
fill="#000000" stroke="none">
<path d="M8278 8368 c-30 -10 -39 -38 -13 -38 8 0 15 -4 15 -10 0 -16 -22 -12
-35 7 -8 11 -18 14 -31 8 -10 -4 -23 -7 -28 -6 -4 1 -14 -4 -22 -10 -11 -9
-19 -8 -33 5 -16 15 -22 15 -40 4 -13 -8 -20 -20 -17 -30 2 -10 0 -18 -6 -18
-6 0 -8 -10 -5 -22 5 -20 2 -23 -24 -23 -25 0 -31 5 -38 30 -4 18 -14 30 -23
30 -9 0 -20 4 -24 8 -15 15 -46 7 -51 -14 -4 -14 -11 -18 -22 -13 -36 14 -54
17 -47 6 4 -7 -17 -10 -69 -9 -50 1 -76 5 -79 14 -3 7 -15 13 -26 13 -14 0
-20 -7 -20 -24 0 -13 -7 -26 -15 -30 -11 -4 -15 1 -15 19 0 33 -15 39 -45 19
-20 -13 -25 -23 -20 -41 4 -17 1 -23 -10 -23 -20 0 -12 33 17 70 18 23 18 25
3 28 -33 7 -85 -9 -99 -30 -21 -30 -32 -16 -12 14 13 20 14 27 3 42 -11 15
-17 17 -35 7 -12 -6 -22 -21 -22 -31 0 -24 3 -24 -48 0 -47 23 -72 26 -72 8 0
-8 -16 -14 -42 -15 -22 -2 -51 -9 -64 -18 -19 -12 -24 -12 -34 0 -18 21 -24
19 -67 -20 -35 -32 -39 -33 -55 -18 -15 14 -24 14 -64 3 -49 -14 -50 -18 -28
-89 6 -21 5 -23 -12 -16 -39 16 -66 18 -74 4 -5 -8 -4 -19 3 -28 9 -11 7 -17
-11 -29 -33 -21 -29 -52 6 -52 23 0 32 -7 45 -35 23 -47 21 -62 -3 -40 -19 17
-20 17 -26 0 -5 -12 -1 -23 12 -32 16 -12 17 -15 4 -23 -8 -5 -27 -10 -41 -10
-17 0 -33 -9 -43 -25 -10 -14 -28 -30 -42 -35 -13 -5 -24 -17 -24 -27 -1 -14
-6 -12 -28 12 -27 30 -86 58 -96 47 -3 -3 -6 -15 -6 -26 0 -20 -1 -20 -20 4
-16 22 -22 23 -39 13 -11 -7 -27 -10 -35 -7 -20 8 -48 -37 -53 -84 -5 -51 -23
-102 -35 -102 -5 0 -30 18 -55 40 -51 44 -89 54 -80 20 4 -14 -1 -24 -16 -32
-18 -9 -23 -7 -35 11 -15 22 -52 29 -52 10 0 -6 9 -24 21 -40 11 -16 16 -29
10 -29 -5 0 -13 5 -16 10 -3 6 -15 10 -26 10 -12 0 -19 7 -19 18 0 10 -5 23
-11 29 -7 7 -3 19 16 38 31 34 20 55 -20 37 -36 -17 -45 -15 -45 8 0 13 -7 20
-20 20 -11 0 -23 7 -26 15 -4 8 -13 15 -20 15 -8 0 -17 -7 -20 -15 -9 -21 -56
-19 -76 4 -15 18 -15 21 3 37 24 21 24 40 2 48 -11 5 -23 -1 -34 -16 l-18 -23
-24 23 c-13 13 -41 27 -62 33 -31 9 -40 8 -56 -7 -18 -17 -20 -16 -34 2 -18
23 -19 50 -3 60 7 5 4 10 -10 15 -17 6 -22 17 -22 44 0 19 -3 35 -8 35 -19 0
-50 -32 -66 -68 -18 -40 -51 -61 -59 -37 -3 6 -1 18 4 26 17 28 10 64 -16 75
-28 14 -49 -2 -43 -33 3 -19 -24 -53 -43 -53 -6 0 -17 7 -26 15 -19 20 -30 12
-38 -26 -5 -21 -11 -29 -22 -25 -8 3 -17 6 -19 6 -2 0 -4 8 -4 19 0 14 -12 22
-44 30 -25 6 -47 11 -49 11 -3 0 0 -18 5 -40 12 -48 5 -60 -20 -37 -26 24 -38
21 -64 -13 -25 -35 -43 -39 -35 -9 4 15 1 19 -11 17 -9 -2 -18 -13 -20 -26 -2
-12 -13 -27 -24 -33 -17 -9 -24 -7 -42 16 -21 26 -22 26 -39 7 -10 -11 -22
-33 -26 -48 -8 -33 -24 -35 -29 -4 -2 11 -8 20 -13 20 -16 0 -10 29 12 49 17
16 19 23 9 40 -6 12 -8 30 -5 41 7 23 -10 60 -29 60 -8 0 -19 -7 -26 -15 -7
-9 -15 -13 -18 -10 -3 3 -16 -5 -29 -17 -16 -15 -20 -25 -13 -33 7 -9 6 -16
-3 -24 -17 -13 -11 -55 9 -72 16 -13 19 -49 4 -49 -5 0 -18 17 -27 37 -22 45
-58 60 -47 19 5 -23 3 -25 -23 -23 -24 2 -28 -1 -25 -20 2 -13 -1 -23 -6 -23
-5 0 -7 -12 -4 -26 3 -19 1 -25 -7 -20 -6 4 -11 14 -11 22 0 8 -6 14 -14 14
-8 0 -20 16 -26 35 -13 38 -19 42 -39 23 -11 -10 -14 -10 -18 0 -3 6 -11 12
-19 12 -9 0 -14 11 -14 33 l-1 32 -28 -32 c-15 -18 -32 -33 -39 -33 -6 0 -14
-9 -17 -20 -9 -28 -19 -25 -32 11 -10 26 -14 29 -32 20 -16 -9 -21 -7 -26 9
-9 28 -45 8 -45 -25 0 -14 -5 -34 -12 -45 -11 -17 -14 -18 -29 -4 -13 12 -22
13 -37 5 -16 -9 -21 -7 -25 8 -2 11 -14 24 -27 31 -19 10 -22 9 -27 -9 -7 -27
-20 -27 -28 -1 -7 21 -22 25 -43 11 -18 -11 24 -85 44 -77 8 3 14 0 14 -8 0
-8 -10 -11 -30 -8 -40 6 -40 -16 0 -31 16 -6 32 -17 34 -24 7 -17 -6 -16 -30
2 -10 8 -25 15 -32 15 -8 0 -21 9 -30 21 -11 13 -23 18 -35 14 -22 -9 -23 -55
-2 -55 14 0 13 -3 -2 -25 -22 -30 -33 -31 -40 -5 -3 11 -9 20 -14 20 -5 0 -9
-1 -9 -2 0 -2 -6 -20 -13 -40 -13 -36 -14 -37 -35 -22 -29 20 -28 34 3 34 20
0 25 5 25 24 0 14 -4 28 -10 31 -13 8 -60 -24 -60 -41 0 -8 -4 -14 -10 -14 -5
0 -10 5 -10 10 0 17 -29 11 -39 -9 -8 -14 -6 -23 10 -37 l20 -18 -20 -8 c-23
-8 -27 -40 -11 -84 l10 -26 -45 6 c-29 5 -45 4 -45 -3 0 -6 -7 -11 -16 -11
-13 0 -15 -7 -10 -30 5 -28 4 -30 -14 -20 -21 11 -73 14 -83 4 -3 -4 0 -16 8
-28 23 -32 18 -46 -15 -46 -46 0 -91 -56 -60 -75 15 -9 2 -25 -21 -25 -21 0
-26 -25 -6 -34 9 -5 10 -7 0 -12 -7 -3 -13 -13 -13 -23 0 -9 -5 -22 -12 -29
-9 -9 -8 -12 4 -12 11 0 17 -11 20 -39 l3 -38 -37 4 c-34 5 -37 4 -40 -23 -3
-30 -29 -48 -80 -59 -19 -4 -26 -10 -22 -20 4 -10 0 -15 -14 -15 -12 0 -23 -9
-27 -21 -5 -14 -10 -18 -17 -11 -7 7 -3 22 12 47 12 20 20 38 17 41 -9 9 -59
-8 -64 -22 -3 -8 -11 -14 -19 -14 -18 0 -18 -14 1 -30 19 -16 19 -34 0 -50
-19 -16 -32 -5 -16 13 15 19 -8 40 -29 27 -26 -17 -31 -11 -15 20 38 73 -1
179 -55 150 -15 -8 -18 -17 -13 -43 3 -17 13 -37 21 -43 13 -9 12 -12 -7 -17
-11 -3 -21 -12 -21 -21 0 -9 -4 -16 -10 -16 -5 0 -10 11 -10 25 0 32 -20 32
-58 0 -28 -23 -30 -24 -45 -7 -8 9 -17 25 -18 34 -4 16 -6 16 -37 1 -25 -12
-30 -19 -21 -29 8 -10 5 -15 -14 -19 -25 -7 -57 -67 -57 -108 0 -11 -8 -17
-21 -17 -17 0 -20 -4 -16 -22 5 -16 -1 -31 -20 -50 -18 -19 -24 -34 -21 -52 5
-26 -5 -35 -17 -16 -8 13 -55 13 -55 1 0 -6 5 -13 10 -16 15 -9 12 -25 -4 -25
-22 0 -27 -29 -10 -56 19 -28 6 -32 -26 -6 -20 16 -20 19 -6 47 11 21 14 43
10 75 -8 56 -21 71 -38 48 -7 -10 -24 -18 -37 -18 -13 0 -39 -4 -57 -10 -27
-7 -31 -6 -23 3 14 17 -2 40 -25 35 -14 -2 -19 -13 -21 -38 -1 -19 -2 -43 -2
-54 -1 -13 -6 -17 -21 -13 -31 8 -29 -16 4 -38 40 -27 42 -44 12 -80 -23 -27
-27 -28 -52 -15 -23 13 -27 13 -38 -1 -6 -9 -21 -21 -33 -27 -17 -10 -21 -19
-18 -52 1 -23 11 -50 20 -60 18 -19 17 -20 -12 -20 -17 0 -36 7 -43 15 -18 21
-48 19 -55 -5 -7 -23 -16 -25 -34 -7 -10 10 -17 6 -38 -18 -16 -19 -27 -26
-30 -17 -9 24 -20 12 -26 -29 -7 -50 -10 -54 -37 -39 -18 10 -24 8 -35 -7 -8
-10 -11 -28 -9 -40 6 -21 5 -21 -36 -7 -37 13 -45 13 -65 0 -12 -8 -32 -12
-43 -9 -16 4 -24 -1 -34 -22 -11 -24 -10 -29 11 -44 21 -16 22 -19 6 -25 -12
-4 -22 0 -31 13 -18 24 -64 37 -75 19 -5 -8 8 -28 40 -58 48 -45 79 -90 63
-90 -5 0 -12 3 -16 7 -3 4 -28 8 -55 10 -45 2 -49 1 -54 -23 -4 -21 2 -29 27
-45 17 -10 34 -19 39 -19 12 0 8 -27 -6 -39 -11 -8 -18 -6 -32 9 -13 15 -22
17 -36 9 -33 -17 -21 -37 31 -56 51 -18 70 -40 25 -29 -18 5 -27 1 -35 -15
-10 -17 -8 -23 9 -36 12 -8 18 -19 15 -25 -7 -10 40 -8 76 4 8 3 12 3 7 0 -24
-13 -27 -43 -6 -71 16 -22 19 -36 14 -60 -9 -42 -28 -40 -20 2 6 28 3 35 -18
46 -20 11 -28 11 -46 0 -11 -8 -21 -21 -21 -29 0 -9 -5 -21 -11 -27 -8 -8 -8
-17 0 -31 6 -10 7 -22 4 -26 -3 -3 -1 -6 5 -6 7 0 21 -9 33 -21 12 -12 27 -18
38 -14 14 4 21 -2 30 -26 6 -18 11 -45 11 -60 0 -26 4 -29 33 -30 21 -1 25 -3
12 -6 -11 -3 -26 -10 -34 -16 -8 -7 -23 -11 -35 -9 -30 3 -63 -29 -78 -77 -14
-43 -28 -54 -28 -21 0 24 -51 61 -58 42 -2 -7 -15 -17 -28 -22 -29 -11 -31
-30 -4 -37 11 -3 17 -9 14 -14 -3 -5 15 -9 40 -9 48 0 57 -9 31 -30 -8 -7 -15
-17 -15 -23 0 -5 8 -3 18 6 10 10 27 17 37 17 15 0 16 -2 4 -16 -11 -14 -10
-18 5 -29 10 -8 15 -19 11 -24 -12 -20 25 -24 45 -6 18 16 20 16 20 2 0 -9 9
-21 20 -27 20 -11 49 3 108 55 20 17 22 17 16 2 -3 -9 -1 -24 6 -32 8 -10 9
-15 2 -15 -6 0 -14 5 -17 10 -9 15 -25 2 -25 -22 0 -11 -8 -22 -20 -25 -29 -8
-25 -20 10 -28 21 -5 30 -13 30 -26 0 -10 5 -19 10 -19 6 0 10 11 10 25 0 14
5 25 10 25 6 0 13 0 18 0 4 0 7 -8 8 -18 2 -28 15 -52 30 -52 16 0 19 -16 4
-25 -5 -3 -10 -2 -10 3 0 12 -84 6 -88 -7 -2 -6 -11 -11 -21 -11 -9 0 -23 -6
-30 -13 -11 -10 -13 -9 -8 4 8 23 -12 39 -49 39 -31 0 -32 1 -24 29 9 33 5 41
-22 41 -12 0 -18 -7 -18 -22 0 -21 -1 -21 -28 5 -31 29 -58 36 -48 12 3 -8 8
-21 11 -28 3 -7 -4 -23 -15 -35 -21 -23 -40 -22 -40 2 0 8 -7 19 -15 26 -12
10 -22 8 -54 -13 l-39 -26 -18 20 c-19 21 -19 21 -31 -8 -12 -27 -13 -27 -19
-6 -7 26 -36 30 -54 8 -10 -12 -10 -18 0 -30 6 -8 9 -19 5 -25 -4 -6 3 -22 16
-36 19 -20 20 -24 5 -24 -9 0 -29 8 -43 17 -19 13 -28 14 -31 5 -5 -17 -29
-15 -36 3 -3 8 -14 15 -24 15 -24 0 -37 -52 -22 -81 6 -10 7 -19 3 -19 -5 0
-13 10 -18 23 -6 12 -20 23 -33 25 -13 2 -26 10 -29 18 -6 16 -39 19 -48 3 -4
-5 1 -19 11 -30 16 -18 16 -19 -5 -19 -39 0 -22 -35 19 -38 41 -3 90 -21 90
-33 0 -4 8 -10 18 -12 9 -2 5 -3 -10 -1 -18 2 -31 -3 -37 -14 -9 -15 -11 -15
-31 3 -21 19 -22 19 -41 -5 -10 -14 -19 -20 -19 -15 -1 6 -5 1 -9 -10 -4 -11
-19 -22 -32 -25 -20 -5 -23 -11 -21 -35 5 -38 6 -39 31 -25 36 19 56 -1 56
-57 1 -26 4 -56 9 -65 6 -13 3 -16 -11 -12 -30 7 -54 -59 -43 -121 5 -27 11
-57 15 -66 3 -9 -1 -23 -9 -32 -22 -21 -20 -44 3 -50 15 -3 18 -11 14 -26 -4
-17 0 -24 15 -28 17 -4 19 -9 11 -30 -13 -35 -11 -91 4 -96 25 -9 -14 -32 -58
-33 -25 -1 -51 -7 -59 -13 -8 -7 -25 -9 -40 -5 -22 5 -26 3 -26 -15 0 -12 -6
-21 -15 -21 -8 0 -15 7 -15 15 0 8 -6 15 -14 15 -7 0 -16 9 -19 20 -3 11 -10
20 -17 20 -7 0 -14 -9 -17 -20 -7 -28 -23 -25 -23 4 0 39 -21 42 -51 8 -25
-28 -34 -32 -76 -30 -27 1 -55 -1 -63 -5 -10 -5 -18 0 -25 15 -6 13 -21 25
-34 26 -21 3 -23 1 -17 -21 6 -25 -13 -43 -41 -38 -7 1 -13 -5 -13 -14 0 -29
-31 -29 -54 -1 -20 26 -22 27 -51 12 -16 -8 -40 -13 -52 -10 -17 5 -23 2 -23
-10 0 -9 7 -19 15 -22 19 -8 19 -24 0 -24 -8 0 -25 11 -37 25 -12 14 -26 25
-31 25 -13 0 -46 -43 -47 -61 0 -8 -11 -26 -25 -39 l-26 -24 26 -13 c32 -17
32 -35 0 -67 -14 -14 -25 -34 -25 -46 0 -11 -5 -20 -11 -20 -6 0 -8 -11 -4
-29 5 -23 2 -29 -14 -34 -14 -3 -21 1 -25 19 l-6 23 -25 -23 c-28 -26 -30 -37
-14 -53 7 -7 20 -8 34 -3 20 8 22 6 20 -27 -2 -22 -10 -40 -24 -49 -11 -8 -21
-26 -21 -39 0 -42 -10 -55 -44 -55 -18 0 -36 4 -42 9 -13 13 -64 2 -64 -14 0
-7 11 -16 25 -19 14 -4 23 -11 19 -17 -3 -6 -7 -21 -9 -35 -2 -26 19 -34 28
-10 4 10 16 12 47 6 48 -9 59 -17 36 -26 -9 -3 -16 -11 -16 -16 0 -6 7 -7 16
-4 9 3 34 1 55 -5 l39 -12 -20 -32 c-15 -24 -17 -34 -8 -43 9 -9 7 -15 -8 -26
-18 -14 -18 -16 -3 -31 14 -14 21 -15 39 -5 33 18 33 7 0 -25 -17 -16 -30 -34
-30 -41 0 -7 -6 -17 -13 -21 -17 -10 -31 -73 -17 -73 6 0 10 -6 10 -13 0 -7 6
-22 14 -33 15 -19 15 -19 30 1 14 18 15 18 16 3 0 -21 25 -24 37 -5 4 8 22 22
38 32 17 10 36 26 43 34 10 13 11 10 6 -17 -5 -25 -3 -32 9 -32 8 0 20 7 27
15 16 19 25 19 44 -1 15 -14 18 -14 35 7 12 15 29 22 49 22 39 0 40 5 5 35
-23 19 -24 22 -7 17 27 -7 55 15 68 56 7 21 19 35 31 38 19 3 19 3 2 -16 -21
-24 -22 -39 -2 -46 9 -4 24 6 40 26 l25 32 -6 -47 c-6 -44 -5 -48 14 -48 12 0
25 7 29 15 7 12 13 11 42 -7 l33 -21 -23 -19 c-19 -14 -21 -20 -11 -26 16 -11
42 -59 42 -77 0 -8 9 -17 20 -20 22 -7 23 -10 11 -40 -5 -13 0 -30 16 -54 24
-35 24 -36 5 -44 -15 -7 -21 -23 -26 -75 -5 -44 -3 -68 3 -70 6 -2 11 -14 11
-27 0 -16 7 -24 24 -27 17 -4 23 -1 19 9 -7 17 18 17 42 -1 18 -13 18 -18 7
-48 -16 -46 -16 -48 13 -48 18 0 25 -5 25 -20 0 -24 44 -38 65 -20 17 14 20
46 5 55 -18 11 -10 22 23 32 28 8 32 13 29 39 -3 45 8 53 86 57 40 2 78 9 85
16 15 15 30 14 24 -3 -3 -7 10 -28 29 -47 l34 -33 27 20 c27 20 37 35 47 68 6
18 7 18 28 0 15 -14 22 -16 25 -6 7 18 34 44 41 37 3 -3 -4 -15 -16 -28 -29
-30 -28 -42 4 -43 34 -2 38 -8 23 -33 -12 -17 -10 -23 9 -44 26 -27 28 -37 7
-37 -22 0 -19 -47 4 -59 10 -6 21 -7 25 -4 3 3 6 2 6 -3 0 -16 -38 -35 -46
-22 -5 8 -11 6 -19 -6 -11 -14 -13 -15 -19 -1 -3 8 -15 15 -26 15 -23 0 -25 9
-6 35 7 10 20 16 29 12 10 -4 17 1 20 14 3 10 1 19 -5 19 -6 0 -8 6 -5 14 3 8
-1 20 -9 26 -8 7 -14 23 -14 36 0 13 -4 24 -10 24 -5 0 -10 -11 -10 -25 0 -14
-4 -25 -9 -25 -5 0 -12 -13 -16 -30 -8 -35 -15 -37 -40 -10 -11 13 -25 18 -37
14 -13 -4 -18 0 -18 15 0 25 -37 29 -46 6 -8 -20 13 -45 32 -38 7 3 17 -2 20
-11 3 -9 15 -16 25 -16 23 0 25 -13 4 -30 -27 -22 -18 -40 20 -40 34 0 43 -8
28 -24 -5 -4 -8 -32 -9 -62 0 -54 9 -67 34 -42 9 9 12 9 12 0 0 -8 12 -12 33
-10 18 1 39 -2 46 -6 7 -5 21 0 34 12 12 11 47 26 77 34 51 12 55 15 58 44 4
37 19 44 105 44 56 0 60 2 127 58 39 32 84 78 100 101 39 53 53 58 86 32 34
-26 54 -27 54 -1 0 42 17 18 24 -32 10 -85 10 -85 -39 -104 -51 -19 -64 -50
-17 -41 27 5 28 4 24 -23 -3 -21 1 -32 12 -36 21 -8 46 13 46 38 0 17 6 15 42
-17 l41 -38 15 28 c12 25 16 26 24 12 12 -23 28 -21 28 3 0 11 5 20 10 20 15
0 12 -26 -5 -40 -18 -15 -20 -40 -3 -40 6 0 22 10 35 22 l23 22 -6 -31 c-6
-30 15 -61 24 -35 2 7 10 19 18 26 8 8 14 18 14 22 0 4 14 20 32 34 32 27 32
27 15 54 -20 29 -15 46 12 46 10 0 21 3 25 7 3 4 21 7 39 7 27 1 32 4 29 24
-4 29 33 31 48 1 9 -16 14 -18 25 -9 18 15 50 5 105 -35 33 -23 61 -33 100
-38 78 -8 217 -54 274 -90 28 -17 59 -31 70 -29 12 1 70 -11 131 -26 107 -26
109 -28 116 -58 11 -55 18 -69 31 -56 8 8 8 15 -2 27 -7 8 -9 15 -4 15 16 -1
54 -38 54 -53 0 -14 20 -27 42 -27 6 0 8 10 4 25 -5 19 -3 23 9 19 10 -4 15 0
15 11 0 29 33 12 42 -23 10 -37 11 -37 43 -16 22 14 24 14 35 -6 9 -16 18 -20
36 -16 20 5 23 3 21 -15 -3 -35 18 -32 31 4 6 18 19 42 28 52 15 19 15 19 11
-9 -4 -23 2 -36 25 -60 25 -25 33 -28 49 -18 10 7 26 12 35 12 13 0 15 7 9 39
-4 25 -2 41 5 46 6 4 8 16 4 28 -6 19 -5 20 10 8 9 -7 16 -19 16 -26 0 -6 7
-26 16 -44 11 -23 21 -30 34 -26 42 13 68 -24 30 -45 -16 -9 -18 -14 -8 -34 6
-14 19 -27 29 -29 26 -7 24 -27 -2 -27 -41 0 -55 -16 -51 -55 4 -32 7 -36 27
-31 18 5 24 1 29 -19 5 -20 13 -25 37 -25 17 0 39 -5 50 -10 16 -9 19 -7 19 8
0 15 5 18 24 15 37 -8 38 11 1 48 l-34 35 35 13 c19 7 32 17 28 23 -6 10 35
45 49 40 4 -1 7 14 7 34 l0 36 25 -16 c22 -14 26 -15 31 -2 10 27 -1 60 -23
71 -20 11 -21 13 -6 27 12 12 22 14 39 7 21 -7 24 -6 24 16 0 14 -7 25 -17 28
-10 3 1 5 23 6 32 1 45 7 57 25 11 16 28 25 51 28 32 4 36 2 36 -20 0 -27 22
-73 44 -91 19 -16 20 -11 5 23 -7 14 -9 32 -5 42 6 15 8 16 24 0 25 -22 32
-20 32 9 0 18 5 25 19 25 10 0 21 7 25 15 3 8 10 15 16 15 8 0 9 -15 4 -45 -7
-48 6 -60 35 -33 11 11 13 9 8 -11 -7 -29 29 -81 56 -81 11 0 25 -7 31 -16 13
-17 46 -9 46 11 0 29 -20 65 -37 66 -10 0 -13 3 -6 5 7 3 21 0 32 -6 26 -14
29 5 4 32 -15 17 -15 18 5 18 23 0 42 -27 42 -59 0 -21 15 -26 44 -15 11 4 16
20 17 48 1 22 4 55 8 71 7 30 7 30 19 7 7 -12 22 -22 32 -22 11 0 20 -4 20
-10 0 -17 29 -11 40 9 6 12 17 17 29 14 13 -3 26 5 42 26 12 17 29 31 36 31 7
0 24 -21 37 -47 32 -63 60 -87 126 -108 30 -10 89 -35 130 -55 41 -20 98 -45
125 -54 103 -34 180 -87 270 -185 47 -51 93 -107 102 -124 61 -118 77 -303 78
-862 l0 -430 -27 -55 c-14 -30 -41 -69 -60 -86 -31 -29 -148 -104 -162 -104
-3 0 -27 -13 -54 -30 -101 -62 -199 -72 -807 -84 -269 -6 -335 -10 -415 -27
-52 -12 -102 -24 -110 -27 -8 -3 -19 -4 -23 -3 -5 1 -7 -6 -5 -16 3 -14 17
-19 73 -25 77 -7 2688 -38 3257 -38 314 0 420 5 546 26 22 3 32 10 32 22 0 14
-15 20 -67 30 -116 21 -381 42 -538 42 -105 1 -168 6 -210 18 -39 10 -94 15
-155 14 -52 -1 -175 4 -273 10 -174 11 -180 12 -243 45 -38 21 -70 45 -78 61
-18 35 -41 158 -66 361 -12 91 -23 168 -25 172 -14 22 -35 287 -35 435 0 175
6 215 42 266 11 15 92 94 180 175 269 245 354 334 361 375 9 57 66 181 94 204
23 20 25 25 15 54 -8 22 -8 38 -1 51 9 19 10 19 38 -2 16 -12 34 -18 40 -15 6
4 11 34 11 67 0 69 14 71 24 4 10 -63 31 -71 73 -28 27 27 34 40 29 59 -4 13
-11 24 -16 24 -6 0 -10 8 -10 17 0 13 3 14 12 5 7 -7 22 -12 35 -12 20 0 22
-4 17 -25 -7 -28 -2 -30 27 -14 17 8 35 4 94 -24 75 -36 105 -68 86 -90 -6 -8
-6 -18 -1 -27 7 -11 14 -12 34 -2 27 12 33 26 16 37 -15 9 -12 25 5 25 8 0 15
-7 15 -15 0 -9 9 -15 25 -15 18 0 28 -7 34 -24 14 -36 39 -40 88 -14 42 23 59
58 28 58 -8 0 -15 3 -15 8 0 11 85 62 103 62 9 0 24 14 32 31 16 31 66 59 105
59 12 0 24 9 30 24 5 15 20 27 39 31 20 4 31 13 33 27 2 11 13 27 25 35 20 14
24 13 48 -12 21 -20 30 -24 41 -14 8 6 14 17 14 24 0 8 8 11 20 8 24 -6 26 4
5 27 -14 15 -8 19 63 43 42 15 83 27 90 27 6 0 21 9 31 19 16 16 26 18 67 10
57 -11 62 -14 46 -39 -7 -11 -12 -24 -12 -30 0 -15 26 -12 40 5 7 8 16 15 20
15 10 0 -16 -88 -30 -105 -14 -17 -2 -45 21 -45 25 0 43 34 29 59 -8 16 -4 25
27 50 l37 31 -17 29 c-28 48 -19 48 26 0 50 -55 73 -65 98 -43 10 9 22 13 28
10 5 -4 12 -2 16 4 11 18 25 10 25 -15 0 -26 25 -45 61 -45 12 0 28 -8 35 -17
7 -10 16 -15 19 -11 8 8 3 23 -21 55 -15 20 -14 21 5 16 24 -6 27 6 9 27 -7 8
-1 5 13 -8 19 -16 28 -19 37 -10 9 9 13 7 17 -5 4 -9 13 -13 21 -10 10 4 17
-2 21 -16 6 -25 33 -29 33 -4 0 9 -7 25 -17 35 -21 23 -13 31 20 19 18 -7 25
-15 21 -26 -5 -11 3 -19 25 -28 23 -8 31 -18 31 -35 0 -14 18 -51 41 -84 22
-33 38 -65 36 -71 -2 -7 0 -20 5 -30 6 -12 6 -23 -2 -31 -8 -10 -6 -15 10 -19
27 -7 25 -23 -6 -54 -18 -18 -24 -32 -20 -48 6 -22 4 -23 -23 -12 -26 9 -35 7
-70 -16 -23 -15 -41 -31 -41 -37 0 -18 23 -23 36 -6 8 12 14 14 19 6 4 -6 0
-17 -9 -23 -14 -10 -15 -16 -4 -39 14 -31 39 -36 58 -13 8 9 16 12 19 6 4 -5
19 -13 34 -16 21 -6 27 -4 27 10 0 9 -4 25 -10 35 -7 13 -6 21 4 29 10 9 13 5
13 -16 1 -16 2 -37 4 -48 3 -15 -5 -23 -39 -35 -26 -9 -41 -19 -38 -27 3 -7
-4 -17 -14 -23 -25 -14 -26 -30 -1 -30 12 0 20 -9 24 -27 6 -33 -11 -48 -34
-27 -8 7 -21 14 -27 14 -7 0 -12 9 -12 20 0 12 -10 24 -24 30 -39 15 -40 29
-1 20 31 -7 35 -6 35 12 0 11 -6 32 -14 46 -8 15 -17 35 -20 45 -7 23 -37 22
-43 -3 -9 -35 -18 -22 -20 30 -3 62 -10 75 -29 59 -11 -9 -18 -9 -26 -1 -12
12 38 82 59 82 7 0 17 9 24 21 8 15 14 18 22 10 15 -15 37 -14 37 3 0 16 -15
23 -50 22 -16 -1 -31 -12 -45 -33 -21 -35 -45 -43 -45 -17 0 10 -6 14 -15 10
-8 -3 -15 -1 -15 4 0 6 -5 10 -12 10 -6 0 -20 7 -30 16 -16 15 -18 15 -24 0
-3 -9 -10 -13 -15 -10 -15 9 -10 44 5 44 9 0 16 12 18 28 4 33 -32 72 -67 72
-17 0 -23 4 -19 14 3 8 13 12 22 9 13 -3 21 6 31 32 17 48 4 62 -37 41 -29
-15 -30 -15 -36 15 -5 27 -8 28 -26 17 -20 -13 -43 -62 -33 -72 11 -11 41 -6
46 7 2 6 8 9 12 5 4 -4 -5 -18 -21 -31 l-28 -25 -31 25 c-17 14 -42 45 -54 69
-35 65 -61 58 -66 -17 -3 -28 1 -39 11 -39 8 0 14 9 14 20 0 11 5 20 10 20 6
0 10 -13 10 -30 0 -25 4 -30 25 -30 16 0 25 -6 25 -15 0 -8 -4 -15 -10 -15 -5
0 -10 -6 -10 -14 0 -8 -7 -16 -15 -20 -23 -8 -18 -28 5 -21 16 5 20 2 20 -19
0 -23 4 -26 35 -26 24 0 35 -5 35 -15 0 -8 -8 -15 -18 -15 -19 0 -42 -18 -42
-32 0 -4 7 -8 15 -8 8 0 15 -9 15 -20 0 -13 7 -20 20 -20 15 0 20 -7 20 -24 0
-14 11 -37 25 -52 14 -15 25 -35 25 -44 0 -20 19 -30 57 -30 25 0 25 -1 10
-18 -18 -20 -23 -52 -8 -52 11 0 110 -63 110 -70 0 -3 -8 -16 -19 -28 -18 -22
-21 -22 -36 -8 -23 23 -34 20 -34 -11 l-1 -28 -33 38 c-18 20 -36 37 -39 37
-4 0 -10 -18 -13 -40 -7 -42 -18 -46 -19 -7 0 30 -29 28 -33 -2 -2 -13 1 -33
6 -45 6 -12 16 -42 22 -69 10 -37 16 -45 26 -37 9 8 18 7 34 -2 15 -10 22 -10
28 -1 11 17 34 -5 49 -44 9 -27 9 -33 -3 -33 -8 0 -14 -4 -14 -9 0 -5 -2 -15
-5 -23 -3 -7 6 -18 21 -25 21 -10 26 -9 31 3 3 9 13 12 24 9 11 -4 19 -2 19 4
0 6 9 11 21 11 12 0 23 8 26 20 6 23 14 25 32 7 10 -10 15 -9 25 6 7 9 23 17
35 17 21 0 21 1 5 25 -13 21 -14 25 -2 25 8 0 23 -6 33 -14 12 -8 33 -12 56
-9 34 5 37 3 33 -15 -3 -11 -1 -23 6 -27 8 -5 5 -12 -9 -22 -28 -19 -26 -33 3
-33 17 0 29 9 38 28 11 22 20 27 46 24 23 -1 32 2 32 14 0 18 34 11 61 -12 22
-20 39 -17 39 6 0 13 -9 22 -25 26 -13 3 -26 13 -29 22 -2 10 -7 27 -11 40 -4
13 -2 22 4 22 6 0 11 -9 11 -20 0 -11 8 -23 18 -27 9 -3 24 -15 33 -25 15 -19
16 -19 61 11 59 40 76 40 73 1 -1 -16 -8 -36 -15 -45 -16 -19 -6 -45 17 -45
13 0 14 -3 5 -12 -19 -19 -15 -48 8 -48 11 0 20 7 20 15 0 12 4 13 25 3 39
-17 42 -1 7 32 -34 31 -41 46 -18 37 8 -3 20 1 26 8 10 12 9 16 -3 21 -28 10
-6 33 39 40 30 4 44 11 44 21 0 12 -8 14 -34 10 -23 -4 -39 -1 -46 8 -9 11 -7
12 8 9 10 -3 24 2 31 10 11 14 16 13 39 -2 l27 -17 -23 31 c-21 31 -21 32 -2
37 30 8 24 34 -11 46 l-30 10 18 32 c10 18 26 34 36 37 10 2 16 10 14 16 -22
51 -22 52 0 34 27 -24 53 -23 53 2 0 22 20 26 38 8 9 -9 12 -5 12 19 0 18 5
35 10 38 6 3 10 15 10 26 0 31 20 22 27 -12 3 -17 12 -33 19 -36 24 -9 16 -33
-12 -33 -21 0 -24 -4 -19 -20 3 -10 1 -28 -5 -40 -14 -27 2 -33 55 -22 31 6
40 13 46 36 6 23 4 29 -11 33 -17 4 -17 7 -2 32 20 36 10 61 -24 61 -22 0 -24
2 -14 15 11 13 15 13 33 0 11 -8 30 -12 42 -9 16 4 24 -1 33 -20 7 -16 20 -26
32 -26 18 0 19 -3 8 -20 -14 -22 -6 -35 17 -26 24 9 31 37 12 48 -20 10 -24
62 -5 56 16 -6 46 -58 47 -80 1 -12 -6 -18 -19 -18 -13 0 -22 -9 -26 -28 -4
-15 -13 -38 -21 -50 -20 -32 -8 -40 20 -14 27 26 37 28 37 7 0 -8 7 -15 15
-15 8 0 15 7 15 15 0 8 5 15 10 15 6 0 10 -4 10 -10 0 -5 15 -17 33 -26 17 -9
36 -23 40 -30 11 -18 36 -18 43 0 9 24 54 -2 54 -31 0 -37 37 -48 85 -24 39
19 40 19 43 1 2 -11 -2 -28 -7 -39 -9 -16 -8 -22 6 -30 16 -9 14 -10 -8 -11
-33 0 -45 -25 -20 -42 10 -7 21 -23 25 -34 5 -15 12 -20 26 -17 16 4 17 9 8
28 -7 16 -7 28 1 41 9 17 10 16 11 -8 0 -30 28 -52 49 -38 8 4 11 15 8 24 -4
10 -1 16 8 16 8 0 15 6 15 14 0 8 4 26 10 41 8 22 13 24 29 15 16 -8 22 -6 31
7 7 11 13 14 16 7 3 -6 10 -19 17 -28 11 -16 15 -16 45 -1 29 15 31 19 20 38
-7 12 -11 28 -10 35 4 16 -4 15 -34 -4 -30 -20 -40 -13 -24 15 8 15 17 20 34
15 14 -3 27 1 35 10 18 22 6 48 -21 44 -11 -2 -23 3 -25 10 -3 6 0 12 6 12 6
0 11 10 11 23 0 13 5 28 11 34 9 9 5 18 -15 37 -47 48 -62 103 -17 62 21 -19
46 -13 37 9 -4 11 7 13 48 11 28 -1 57 -6 64 -10 8 -5 12 0 12 13 0 29 14 26
28 -4 6 -14 16 -25 21 -25 5 0 8 -8 7 -17 0 -12 7 -19 22 -21 24 -4 42 -36 42
-77 0 -31 20 -43 27 -17 6 26 35 39 32 14 -4 -22 10 -62 20 -62 5 0 14 7 21
15 7 8 18 15 25 15 6 0 18 12 25 27 11 23 14 25 17 11 3 -10 14 -18 25 -18 17
0 20 4 15 30 -4 17 -2 30 3 30 6 0 10 -9 10 -20 0 -29 31 -74 40 -59 6 8 12 4
20 -12 18 -34 33 -41 47 -23 7 10 13 11 18 5 13 -23 26 -10 20 19 -8 38 0 38
20 0 11 -20 23 -30 39 -30 13 0 35 -9 49 -20 14 -11 30 -20 35 -20 20 0 -1 41
-28 55 -15 8 -30 21 -33 30 -8 20 -1 19 32 -4 15 -11 51 -29 79 -40 l52 -21 0
31 c0 21 -10 40 -30 61 -22 22 -29 36 -24 50 4 13 1 24 -7 29 -10 6 -10 9 -2
9 6 0 15 -4 18 -10 3 -5 15 -15 26 -20 16 -9 19 -7 19 9 0 11 -9 22 -20 26
-25 8 -26 22 -1 30 11 3 22 19 26 35 3 16 13 34 21 41 12 10 14 4 14 -35 0
-34 4 -46 15 -46 8 0 15 9 15 19 0 11 5 23 10 26 6 3 10 -3 10 -14 0 -12 7
-21 15 -21 9 0 15 6 14 13 -3 15 33 77 44 77 5 0 5 -5 2 -10 -9 -15 4 -50 20
-50 14 0 28 30 23 48 -2 6 6 17 17 25 20 15 20 15 0 37 -13 14 -26 19 -41 16
-18 -5 -23 0 -28 25 -7 38 4 61 15 31 6 -16 17 -22 39 -22 16 0 30 4 30 8 0
13 -69 82 -82 82 -7 0 -3 6 7 14 19 14 19 15 0 38 -11 12 -26 27 -33 31 -7 5
-10 13 -6 18 3 6 -2 19 -12 30 -17 18 -16 20 4 42 14 15 19 30 15 45 -4 18 -1
22 16 22 24 0 25 3 9 30 -7 10 -8 23 -4 27 5 4 11 2 13 -5 4 -11 53 -42 66
-42 3 0 4 18 3 40 -1 39 -2 40 -29 34 -27 -6 -28 -4 -18 15 7 12 21 21 31 21
11 0 20 5 20 10 0 7 6 7 19 0 11 -5 29 -10 39 -10 15 0 19 -5 15 -20 -5 -18 0
-20 37 -20 31 0 43 4 46 18 4 14 14 16 51 13 43 -3 46 -2 40 18 -4 17 -1 21
18 21 35 0 43 36 14 66 -12 13 -21 25 -18 27 42 31 57 35 71 21 13 -13 147
-64 169 -64 5 0 9 7 9 15 0 8 -6 15 -13 15 -24 0 -49 37 -42 59 9 28 -17 38
-47 17 -29 -21 -35 -20 -41 3 -3 13 1 21 14 24 29 8 23 25 -11 32 -17 4 -30
13 -30 21 0 12 4 12 21 4 30 -16 49 -5 49 29 0 28 -1 29 -42 24 -24 -3 -47 -9
-52 -14 -18 -17 -26 -9 -16 16 8 21 7 25 -10 25 -12 0 -20 7 -20 16 0 12 6 15
24 10 14 -3 28 0 35 8 7 8 22 11 38 8 23 -4 25 -3 20 19 -4 13 -7 30 -7 37 0
6 -9 12 -20 12 -13 0 -20 7 -20 19 0 13 -8 21 -22 23 -15 2 -24 13 -30 36 -8
32 -32 44 -41 20 -3 -10 -7 -10 -20 1 -14 11 -18 11 -24 -4 -3 -10 -1 -31 4
-46 13 -35 -5 -41 -25 -9 -7 11 -17 20 -22 20 -6 0 -10 -9 -10 -20 0 -26 -8
-25 -45 5 l-30 25 33 0 c25 0 32 4 32 19 0 14 6 17 26 13 24 -4 25 -3 15 16
-6 11 -16 23 -23 26 -10 3 -8 8 5 16 9 6 17 21 17 33 0 12 7 30 14 40 12 15
18 16 35 8 11 -6 24 -11 30 -11 19 0 12 43 -11 67 -30 32 -16 40 22 13 17 -12
33 -21 34 -19 8 10 15 89 8 89 -5 0 -17 -9 -27 -20 -10 -11 -25 -20 -34 -20
-12 0 -12 3 -3 12 19 19 15 48 -8 48 -11 0 -20 -4 -20 -10 0 -5 -5 -10 -11
-10 -14 0 -3 49 16 70 7 8 15 32 19 53 8 44 -11 51 -37 14 -11 -15 -16 -17
-16 -7 0 8 6 24 14 34 20 27 19 36 -5 36 -11 0 -20 6 -20 13 -1 6 -16 22 -35
34 -36 22 -73 21 -88 -4 -6 -10 -12 -10 -32 3 -16 10 -41 15 -74 13 -28 -2
-53 0 -56 3 -9 9 -109 -13 -125 -27 -10 -9 -20 -11 -30 -5 -8 5 -23 7 -33 4
-16 -5 -18 -2 -12 15 5 15 2 21 -9 21 -10 0 -16 9 -16 25 0 14 -5 25 -11 25
-6 0 -9 6 -6 14 3 8 -1 20 -9 26 -26 23 -17 39 20 33 19 -3 36 -1 40 6 11 18
24 13 31 -11 8 -24 43 -68 56 -68 12 0 17 36 7 54 -11 19 -5 20 22 4 23 -15
25 -12 33 27 5 26 1 34 -24 50 -19 13 -27 25 -23 35 12 30 9 45 -8 42 -22 -3
-23 8 -4 34 14 19 15 18 60 -4 55 -26 57 -26 50 -7 -4 9 0 15 10 15 12 0 16
10 16 35 0 24 -5 35 -15 35 -19 0 -20 16 -1 23 20 8 8 57 -15 57 -10 0 -21 -5
-24 -10 -5 -8 -12 -7 -22 1 -19 17 -35 -5 -30 -43 3 -22 -1 -28 -16 -28 -13 0
-17 5 -13 16 3 8 3 33 0 55 -5 30 -14 43 -35 54 -40 21 -55 19 -84 -13 -14
-15 -25 -22 -24 -17 4 26 -3 35 -30 35 -23 0 -31 -6 -39 -30 -13 -35 -42 -32
-42 5 0 22 -23 38 -46 34 -24 -4 -34 3 -34 25 0 38 -10 56 -32 56 -17 0 -19
-5 -14 -28 4 -15 3 -22 -1 -16 -4 6 -16 13 -25 17 -10 3 -15 13 -12 25 5 16
-1 19 -52 20 -40 1 -61 6 -66 17 -5 8 -16 15 -23 15 -8 0 -15 4 -15 10 0 5 -7
7 -15 4 -9 -4 -15 0 -15 10 0 9 -8 16 -17 16 -9 0 -25 7 -35 17 -17 15 -18 15
-18 -9 0 -14 -7 -31 -15 -38 -12 -10 -15 -10 -15 0 0 7 -11 21 -25 32 -28 21
-34 41 -10 32 21 -9 19 9 -6 40 -25 32 -20 45 6 16 24 -27 28 -26 60 15 22 29
24 39 14 51 -6 8 -9 18 -5 22 4 4 12 -1 18 -11 8 -15 12 -16 25 -6 12 10 16
10 23 -1 4 -7 6 -19 3 -27 -6 -16 33 -18 72 -3 19 7 25 15 21 28 -5 13 0 18
17 19 42 4 68 14 64 26 -2 7 -17 12 -33 12 -16 0 -33 6 -37 13 -4 6 -28 12
-52 12 l-44 0 2 53 c2 47 0 52 -19 49 -11 -1 -31 2 -45 7 -13 5 -18 10 -11 10
6 1 12 8 12 16 0 10 -7 15 -17 13 -12 -2 -19 4 -21 20 -4 23 -35 31 -48 11 -3
-6 -17 -8 -30 -5 -18 5 -24 2 -24 -10 0 -9 -7 -14 -17 -12 -12 2 -19 14 -21
37 -2 19 -10 45 -19 57 l-15 24 71 0 c72 0 87 10 51 32 -11 7 -20 18 -20 25 0
17 -18 16 -36 -2 -9 -8 -28 -15 -43 -15 -15 0 -36 -9 -46 -20 -15 -17 -20 -18
-37 -5 -11 7 -26 11 -33 8 -8 -2 -18 5 -25 16 -9 19 -8 21 15 21 14 0 35 -10
47 -22 17 -17 23 -19 26 -7 3 8 8 16 11 19 3 3 12 15 19 28 10 18 10 27 1 38
-9 11 -8 14 9 14 12 0 23 -4 27 -10 9 -15 45 28 45 54 0 24 -3 24 -52 21 -69
-5 -93 11 -83 56 l7 32 -41 -6 c-38 -5 -43 -2 -67 29 -19 24 -24 41 -20 58 6
23 4 24 -37 24 -24 -1 -65 5 -90 13 -41 12 -47 17 -47 41 0 21 5 28 20 28 11
0 20 7 20 15 0 8 -9 15 -20 15 -11 0 -30 6 -41 13 -17 10 -23 10 -26 0 -3 -7
-8 -13 -13 -13 -9 0 -4 96 6 112 9 14 -6 48 -21 48 -16 0 -45 49 -45 75 0 8 9
15 20 15 11 0 20 4 20 9 0 5 3 16 6 25 5 12 -5 16 -45 22 -47 6 -50 8 -45 30
5 18 2 24 -10 24 -24 0 -20 12 17 47 22 20 38 28 46 23 11 -6 11 -8 0 -12 -12
-4 -12 -7 0 -21 19 -24 34 -21 28 4 -5 19 -2 21 24 15 22 -4 29 -2 29 10 0 8
-8 18 -17 21 -10 4 -31 15 -48 26 -22 13 -24 17 -8 12 13 -4 38 2 63 15 41 21
46 40 10 40 -13 0 -17 5 -14 15 10 26 -6 38 -27 19 -26 -24 -24 -5 3 23 15 16
19 26 11 31 -6 4 -13 18 -14 32 -4 23 -8 25 -49 22 -38 -3 -50 1 -70 21 -39
40 -51 57 -46 65 3 5 0 25 -6 45 -9 30 -15 36 -33 31 -28 -7 -56 23 -34 37 12
8 12 10 -1 19 -11 7 -16 5 -19 -8 -3 -16 -19 -32 -33 -32 -3 0 -1 14 5 30 11
30 24 35 79 31 22 -2 27 2 30 26 2 22 10 30 36 38 17 5 32 13 32 17 0 13 -39
48 -54 48 -8 0 -16 7 -20 15 -3 8 -16 15 -28 15 -21 1 -21 2 -6 13 9 7 24 17
34 22 16 10 15 14 -11 53 -15 23 -38 45 -50 48 -19 5 -21 11 -19 56 2 47 1 49
-19 44 -12 -3 -29 -6 -38 -6 -21 0 -31 -37 -18 -62 6 -11 8 -23 4 -26 -3 -3
-8 4 -12 17 -4 18 -11 22 -30 18 -18 -3 -23 -1 -19 9 3 8 9 21 12 30 6 13 1
15 -26 12 -29 -3 -34 1 -54 39 -18 37 -25 42 -53 43 -28 0 -33 4 -33 25 0 18
-5 25 -20 25 -12 0 -20 -7 -21 -17 0 -11 -3 -13 -6 -6 -3 8 -14 11 -31 7 l-27
-7 23 22 c23 23 29 41 12 41 -5 0 -10 7 -10 16 0 10 7 14 23 12 17 -2 21 1 19
18 -3 22 2 24 96 41 17 3 32 10 32 15 0 6 -11 7 -24 4 -25 -6 -36 8 -36 42 1
15 3 14 16 -3 11 -15 18 -17 31 -9 33 20 39 42 21 71 -9 16 -21 28 -26 28 -5
0 -26 -20 -47 -44 -26 -32 -35 -52 -32 -68 6 -30 -15 -25 -23 5 -4 16 -9 19
-20 12 -27 -18 -34 -10 -12 13 12 13 22 27 22 33 0 16 -83 55 -94 44 -18 -18
-28 -11 -24 15 4 19 1 25 -12 25 -13 0 -16 6 -13 24 3 15 -1 25 -12 30 -22 8
-35 -1 -35 -25 0 -25 -17 -25 -25 1 -4 12 -15 20 -28 20 -12 0 -28 -9 -35 -20
-14 -23 -50 -27 -58 -6 -6 17 -54 9 -71 -11 -9 -12 -16 -12 -33 -3 -14 7 -39
9 -65 5 -36 -5 -45 -3 -54 12 -8 14 -12 16 -22 6 -18 -18 -49 -16 -49 2 0 7 7
18 16 23 20 11 28 93 8 85 -16 -6 -11 32 7 53 7 8 10 16 8 17 -2 1 -12 9 -22
16 -15 12 -21 11 -42 -9 -14 -13 -25 -29 -25 -37 0 -11 -4 -11 -20 -1 -11 7
-20 23 -20 35 0 30 -16 37 -32 15 -7 -10 -20 -19 -28 -20 -8 -1 -39 -6 -68
-10 -63 -10 -73 -2 -67 56 l4 42 -35 0 c-35 0 -35 1 -28 32 3 18 13 38 22 44
24 17 -5 29 -34 13 -15 -8 -24 -21 -24 -37 0 -19 -4 -23 -20 -19 -23 6 -26 -3
-8 -21 9 -9 7 -12 -9 -12 -12 0 -29 10 -38 22 -14 21 -14 24 0 34 11 9 14 20
9 40 -15 61 -47 71 -79 24 -24 -36 -33 -38 -37 -7 -2 18 -10 22 -40 24 -33 2
-39 -1 -44 -22 -3 -14 -8 -25 -11 -25 -11 0 -48 55 -45 67 2 7 -2 22 -8 34
-10 17 -14 18 -27 8 -12 -11 -17 -10 -24 4 -12 21 -48 22 -55 2 -4 -9 -1 -29
6 -46 15 -36 8 -44 -43 -53 -36 -7 -37 -6 -31 18 4 19 0 28 -20 41 -15 10 -26
27 -26 40 0 15 -8 25 -22 30 -21 6 -19 8 16 19 38 12 66 38 66 63 0 7 -6 10
-15 7 -11 -4 -20 5 -31 32 -15 36 -17 37 -30 20 -10 -15 -17 -16 -27 -8 -9 8
-17 8 -23 2 -6 -6 -21 -6 -42 2 -36 14 -42 28 -11 28 24 0 21 18 -4 34 -13 8
-20 8 -26 -3 -11 -18 -48 -5 -56 20 -8 23 -50 26 -59 4 -3 -8 -12 -15 -20 -15
-8 0 -31 -9 -50 -21 -41 -24 -47 -13 -12 20 14 13 22 30 19 40 -3 12 2 20 16
24 14 3 21 13 21 31 0 14 8 30 18 35 16 10 16 12 0 25 -10 7 -18 21 -18 31 0
14 -3 15 -15 5 -9 -7 -16 -11 -18 -9 -21 37 -25 50 -20 68 3 11 4 21 2 20 -2
0 -16 -5 -31 -11z m-542 -146 c-3 -5 9 -17 27 -27 36 -21 19 -35 -19 -14 -24
12 -34 49 -13 49 5 0 8 -4 5 -8z m739 -192 c-4 -6 -1 -18 6 -26 10 -12 8 -19
-11 -39 -28 -30 -40 -32 -40 -5 0 12 7 20 16 20 10 0 15 8 14 23 -3 31 -1 37
11 37 5 0 7 -5 4 -10z m-1987 -262 c-6 -18 -25 -20 -31 -3 -5 10 0 15 14 15
12 0 19 -5 17 -12z m-2511 -100 c-3 -8 -6 -5 -6 6 -1 11 2 17 5 13 3 -3 4 -12
1 -19z m-101 -44 c-12 -30 -25 -13 -13 19 8 23 12 27 15 14 2 -10 1 -25 -2
-33z m6234 -420 c0 -8 -4 -12 -10 -9 -5 3 -10 10 -10 16 0 5 5 9 10 9 6 0 10
-7 10 -16z m420 -384 c0 -5 -7 -10 -15 -10 -8 0 -15 -7 -15 -15 0 -8 -4 -15
-10 -15 -11 0 -14 33 -3 43 10 11 43 8 43 -3z m-7934 -61 c3 -6 1 -16 -5 -22
-7 -7 -12 -6 -17 6 -8 22 -30 22 -43 0 -9 -15 -10 -16 -11 -2 0 9 3 19 7 22
10 11 61 8 69 -4z m7943 -108 c9 -16 8 -18 -9 -14 -21 5 -25 15 -13 26 9 10
11 9 22 -12z m-39 -17 c0 -9 -5 -14 -12 -12 -18 6 -21 28 -4 28 9 0 16 -7 16
-16z m85 6 c-3 -5 -12 -10 -18 -10 -7 0 -6 4 3 10 19 12 23 12 15 0z m-85 -91
c0 -5 -4 -9 -10 -9 -5 0 -10 7 -10 16 0 8 5 12 10 9 6 -3 10 -10 10 -16z
m-200 -49 c0 -5 -4 -10 -10 -10 -5 0 -10 5 -10 10 0 6 5 10 10 10 6 0 10 -4
10 -10z m-4194 -317 c19 -26 17 -35 -6 -23 -11 6 -20 17 -20 25 0 20 10 19 26
-2z m-216 -568 c-7 -9 -15 -13 -17 -11 -7 7 7 26 19 26 6 0 6 -6 -2 -15z
m5138 -167 c2 -12 -2 -15 -17 -11 -12 3 -21 12 -21 20 0 20 34 12 38 -9z
m-6858 -100 c0 -14 -18 -9 -24 8 -11 28 -6 39 9 20 8 -11 15 -23 15 -28z m-70
2 c0 -5 -4 -10 -10 -10 -5 0 -10 5 -10 10 0 6 5 10 10 10 6 0 10 -4 10 -10z
m1080 -14 c0 -13 3 -33 7 -43 6 -17 5 -17 -15 1 -22 19 -29 46 -15 59 13 14
23 6 23 -17z m2777 2 l23 -21 9 24 c5 13 10 21 10 17 2 -19 6 -24 32 -40 37
-23 37 -38 -1 -38 -23 0 -33 -6 -40 -25 -14 -36 -27 -31 -35 14 -4 27 -13 41
-26 44 -11 3 -19 14 -19 26 0 27 18 27 47 -1z m-2589 -30 c2 -28 -2 -38 -21
-51 -14 -9 -27 -14 -29 -12 -8 9 27 105 37 102 6 -2 11 -19 13 -39z m5634 0
c-7 -7 -13 -4 -21 10 -13 25 -3 35 17 16 10 -11 12 -18 4 -26z m-4092 -68 c0
-12 -49 -45 -56 -37 -3 3 1 14 8 26 13 21 48 29 48 11z m-4885 -10 c-3 -5 -13
-10 -21 -10 -8 0 -12 5 -9 10 3 6 13 10 21 10 8 0 12 -4 9 -10z m55 -135 c0
-8 -7 -15 -16 -15 -14 0 -14 3 -4 15 7 8 14 15 16 15 2 0 4 -7 4 -15z m3955
-15 c-5 -8 -11 -8 -21 1 -12 10 -12 14 -2 20 16 10 33 -5 23 -21z m-3875 10
c0 -5 -4 -10 -10 -10 -5 0 -10 5 -10 10 0 6 5 10 10 10 6 0 10 -4 10 -10z
m8060 -40 c0 -5 -4 -10 -10 -10 -5 0 -10 5 -10 10 0 6 5 10 10 10 6 0 10 -4
10 -10z m-8226 -97 c-4 -14 -11 -20 -20 -16 -13 5 -12 8 2 24 21 23 25 21 18
-8z m8146 -23 c0 -13 -28 -25 -38 -16 -3 4 0 11 8 16 20 13 30 12 30 0z
m-1697 -161 c-5 -5 -18 -7 -28 -3 -16 6 -15 8 6 20 25 13 40 1 22 -17z m447
-19 c0 -5 -7 -10 -15 -10 -8 0 -15 5 -15 10 0 6 7 10 15 10 8 0 15 -4 15 -10z
m-684 -35 c-7 -18 -26 -20 -26 -2 0 18 24 41 28 27 2 -6 1 -17 -2 -25z m2752
12 c13 3 22 1 22 -6 0 -6 -16 -11 -35 -11 -26 0 -35 4 -35 16 0 12 3 14 13 6
7 -6 23 -9 35 -5z m-7284 -93 c12 -5 13 -9 3 -25 -14 -23 -30 -24 -51 -3 -27
27 4 45 48 28z m156 -49 c0 -8 -7 -15 -16 -15 -14 0 -14 3 -4 15 7 8 14 15 16
15 2 0 4 -7 4 -15z m44 -41 c8 -20 -2 -54 -14 -54 -12 0 -24 46 -15 59 9 16
22 13 29 -5z m3467 -14 c10 -6 19 -17 19 -26 0 -13 -4 -13 -30 1 -17 9 -28 20
-25 25 8 13 12 12 36 0z m-162 -31 c-8 -16 -14 -18 -22 -10 -9 9 -8 14 3 21
24 16 31 11 19 -11z m4341 -19 c0 -5 -4 -10 -10 -10 -5 0 -10 5 -10 10 0 6 5
10 10 10 6 0 10 -4 10 -10z m-4021 -19 c7 -5 10 -14 6 -20 -5 -9 -10 -9 -21 0
-26 22 -14 38 15 20z m-769 -100 c0 -12 -20 -25 -27 -18 -7 7 6 27 18 27 5 0
9 -4 9 -9z m5311 -35 c-8 -10 -6 -17 9 -31 26 -23 25 -28 -6 -42 -25 -11 -26
-11 -20 12 7 27 -3 32 -22 13 -23 -23 -12 3 13 30 14 15 25 34 26 42 0 11 2
11 6 2 3 -7 0 -19 -6 -26z m-5283 -9 c4 -19 -6 -21 -27 -8 -16 10 -5 34 12 28
7 -2 13 -11 15 -20z m5421 -34 c1 -7 -6 -13 -14 -13 -15 0 -21 40 -8 54 7 7
21 -18 22 -41z m-5807 -8 c0 -5 -5 -11 -11 -13 -6 -2 -11 4 -11 13 0 9 5 15
11 13 6 -2 11 -8 11 -13z m5006 4 c-2 -6 -8 -10 -13 -10 -5 0 -11 4 -13 10 -2
6 4 11 13 11 9 0 15 -5 13 -11z m-11048 -524 c0 -14 -5 -25 -11 -25 -5 0 -7 5
-4 10 3 6 -1 13 -9 16 -23 9 -20 24 4 24 15 0 20 -7 20 -25z m6710 -9 c0 -2 3
-11 6 -20 4 -12 0 -16 -15 -16 -14 0 -21 6 -21 20 0 11 7 20 15 20 8 0 15 -2
15 -4z m734 -51 c-4 -8 -10 -15 -15 -15 -5 0 -9 7 -9 15 0 8 7 15 15 15 9 0
12 -6 9 -15z m-2042 -54 c-16 -17 -42 -18 -42 -1 0 9 43 29 52 23 4 -2 0 -12
-10 -22z m6734 -98 c-7 -7 -26 7 -26 19 0 6 6 6 15 -2 9 -7 13 -15 11 -17z
m-506 -42 c15 -29 13 -32 -15 -19 -14 6 -25 17 -25 25 0 20 28 16 40 -6z m600
-205 c0 -13 8 -27 17 -30 12 -5 14 -9 5 -18 -9 -9 -15 -7 -27 8 -16 22 -20 64
-5 64 6 0 10 -11 10 -24z m-10655 -66 c4 -17 11 -30 17 -30 6 0 -1 -11 -16
-25 -15 -14 -37 -25 -50 -25 -36 0 -86 12 -86 20 0 4 11 5 24 3 27 -6 50 24
40 51 -4 9 4 20 23 29 34 18 40 15 48 -23z m-975 5 c0 -8 -4 -15 -10 -15 -5 0
-10 7 -10 15 0 8 5 15 10 15 6 0 10 -7 10 -15z m-480 -5 c0 -5 -2 -10 -4 -10
-3 0 -8 5 -11 10 -3 6 -1 10 4 10 6 0 11 -4 11 -10z m510 -17 c-1 -18 -18 -35
-24 -24 -4 6 -4 16 -1 21 7 12 25 13 25 3z m10620 -77 c0 -15 -18 -31 -26 -23
-7 7 7 37 17 37 5 0 9 -6 9 -14z m-10742 -24 c3 -9 -2 -13 -14 -10 -9 1 -19 9
-22 16 -3 9 2 13 14 10 9 -1 19 -9 22 -16z m1742 3 c0 -8 -9 -15 -20 -15 -13
0 -18 5 -14 15 4 8 12 15 20 15 8 0 14 -7 14 -15z m9109 -14 c-3 -6 -10 -7
-18 -2 -7 5 -10 14 -6 21 9 14 29 -2 24 -19z m-10799 9 c0 -5 -4 -10 -10 -10
-5 0 -10 5 -10 10 0 6 5 10 10 10 6 0 10 -4 10 -10z m1700 -30 c0 -5 -5 -10
-11 -10 -5 0 -7 5 -4 10 3 6 8 10 11 10 2 0 4 -4 4 -10z m5600 -41 c0 -10 -4
-19 -9 -19 -10 0 -21 36 -14 44 10 10 23 -5 23 -25z m-5550 3 c0 -13 -58 -43
-64 -33 -7 11 12 27 39 34 11 2 21 5 23 6 1 0 2 -3 2 -7z m800 -28 c0 -18 6
-28 21 -31 15 -4 17 -8 8 -14 -22 -13 -48 9 -47 41 1 37 18 40 18 4z m9200 16
c0 -5 -4 -10 -10 -10 -5 0 -10 5 -10 10 0 6 5 10 10 10 6 0 10 -4 10 -10z
m-10440 -20 c0 -11 -5 -20 -12 -20 -6 0 -20 -7 -30 -17 -15 -13 -18 -13 -18
-2 0 22 29 59 46 59 8 0 14 -9 14 -20z m10388 2 c6 -18 -15 -14 -22 4 -4 10
-1 14 6 12 6 -2 14 -10 16 -16z m-4380 -30 c2 -7 -2 -10 -12 -6 -9 3 -16 11
-16 16 0 13 23 5 28 -10z m-6378 -7 c0 -8 -9 -15 -20 -15 -20 0 -26 11 -13 23
12 13 33 7 33 -8z m270 -35 c0 -11 -26 -31 -32 -24 -11 11 4 43 18 37 8 -3 14
-9 14 -13z m9540 10 c0 -5 -4 -10 -10 -10 -5 0 -10 5 -10 10 0 6 5 10 10 10 6
0 10 -4 10 -10z m-8899 -50 c21 0 39 -4 39 -10 0 -14 20 -12 53 5 15 8 35 11
43 8 15 -6 15 -17 -2 -58 -7 -18 -6 -19 10 -5 10 8 22 24 27 37 8 22 29 32 29
15 0 -5 12 -14 27 -21 20 -9 23 -15 15 -23 -20 -20 -15 -47 8 -41 24 6 24 5 4
-35 -13 -27 -21 -32 -50 -32 -19 0 -34 5 -34 11 0 5 -5 7 -10 4 -18 -11 -42
17 -35 42 4 18 1 23 -15 23 -11 0 -20 6 -20 14 0 22 -30 28 -37 8 -4 -9 -11
-20 -17 -24 -6 -4 -6 -11 2 -20 6 -8 9 -24 5 -36 -6 -25 -1 -27 29 -11 16 9
23 8 29 -2 13 -20 11 -29 -5 -29 -12 0 -33 -66 -24 -75 2 -2 25 -10 52 -17 46
-12 50 -12 60 7 14 25 89 96 95 90 2 -3 -13 -30 -34 -60 -21 -31 -36 -57 -34
-59 24 -20 46 -23 71 -10 32 16 31 15 19 47 -6 14 -6 29 0 38 8 12 12 11 23
-3 7 -10 19 -18 26 -18 7 0 19 8 26 18 13 16 14 16 7 -3 -3 -11 -15 -32 -25
-47 -11 -16 -16 -33 -12 -39 5 -8 10 -6 16 5 10 17 68 23 68 6 0 -6 11 -16 25
-22 19 -9 25 -19 25 -44 0 -18 -5 -36 -11 -39 -7 -5 -8 5 -4 29 8 39 -3 47
-26 20 -11 -14 -14 -13 -27 11 -13 25 -14 26 -38 11 -20 -14 -27 -14 -44 -4
-18 11 -23 10 -34 -4 -12 -17 -18 -16 -92 11 -135 49 -188 72 -207 89 -23 21
-19 64 8 72 13 3 21 15 23 33 2 22 -3 29 -25 39 l-28 11 25 7 c14 5 19 8 11 9
-11 1 -11 5 2 19 10 10 17 22 17 25 0 11 -58 8 -65 -3 -11 -18 -24 -1 -21 28
5 36 7 40 13 20 3 -13 15 -18 44 -18z m2904 10 c3 -5 -3 -10 -14 -10 -11 0
-23 5 -26 10 -3 6 3 10 14 10 11 0 23 -4 26 -10z m6733 -23 c5 -24 -15 -21
-21 4 -3 13 -1 19 6 16 7 -2 13 -11 15 -20z m-10678 4 c0 -5 -7 -14 -15 -21
-12 -10 -15 -10 -15 2 0 8 3 18 7 21 9 10 23 9 23 -2z m2364 -25 c6 -25 5 -28
-13 -23 -12 3 -21 0 -21 -6 0 -6 -3 -8 -6 -5 -3 4 2 20 11 38 19 36 20 36 29
-4z m-1554 4 c0 -20 -25 -38 -36 -27 -5 4 25 47 33 47 2 0 3 -9 3 -20z m1094
-11 c5 -5 7 -11 4 -15 -7 -6 -68 23 -68 32 0 8 53 -5 64 -17z m2119 -17 c32
-32 36 -43 31 -69 -3 -18 -19 -40 -35 -52 -33 -25 -30 -41 7 -41 13 0 24 -4
24 -9 0 -5 3 -16 6 -25 4 -10 1 -16 -7 -16 -17 0 -59 -40 -59 -57 0 -18 35
-17 50 2 7 8 19 15 28 15 13 0 13 -2 -1 -18 -22 -24 -22 -52 1 -52 25 0 47 39
47 84 1 34 5 41 29 49 24 8 32 5 54 -17 31 -30 16 -35 -20 -6 -19 14 -28 16
-36 8 -19 -19 -14 -46 10 -54 19 -6 20 -8 6 -18 -8 -6 -19 -22 -23 -35 -7 -23
-6 -24 34 -17 38 6 41 4 43 -16 2 -33 1 -41 -7 -60 -5 -14 -2 -18 13 -18 15 0
22 -9 27 -30 7 -33 14 -37 33 -18 9 9 12 8 12 -4 0 -46 -43 -78 -105 -78 -30
0 -47 11 -124 83 -105 98 -215 167 -266 167 -20 0 -35 5 -35 12 0 6 -7 20 -17
30 -10 12 -12 18 -4 18 7 0 36 22 64 48 29 27 60 52 70 55 9 4 17 15 17 26 0
11 5 42 12 70 9 39 16 51 30 51 10 0 21 7 24 15 10 24 27 18 67 -23z m-3983
-7 c18 -22 8 -27 -29 -14 -24 9 -29 14 -19 20 19 13 34 11 48 -6z m3840 -25
c0 -28 -2 -30 -20 -20 -17 9 -18 14 -7 30 17 28 27 25 27 -10z m3794 -15 c-4
-8 -10 -15 -15 -15 -5 0 -9 7 -9 15 0 8 7 15 15 15 9 0 12 -6 9 -15z m-5428
-10 c-3 -8 -9 -22 -12 -30 -9 -22 14 -18 28 4 9 15 15 17 25 9 10 -8 19 -6 36
11 36 33 55 26 22 -9 -20 -20 -35 -28 -47 -24 -11 3 -31 -2 -45 -12 -19 -12
-28 -13 -31 -6 -2 8 -14 9 -29 6 -29 -8 -26 3 10 44 23 25 52 30 43 7z m5291
3 c39 -14 40 -19 12 -44 -21 -19 -21 -18 -40 5 -19 23 -25 51 -12 51 4 0 22
-5 40 -12z m843 7 c0 -3 -8 -13 -18 -23 -14 -14 -23 -16 -40 -9 -31 14 -27 25
11 30 17 2 35 5 40 5 4 1 7 0 7 -3z m2084 -16 c6 -5 -8 -8 -32 -6 -25 1 -42 7
-42 14 0 14 58 7 74 -8z m-7809 1 c3 -5 2 -10 -4 -10 -6 0 -19 -9 -29 -20 -17
-18 -21 -19 -31 -6 -10 12 -7 17 16 30 34 18 40 19 48 6z m2193 -34 c-5 -40
-3 -46 24 -66 16 -12 27 -24 24 -27 -3 -3 -19 7 -37 21 -17 15 -39 26 -48 24
-25 -5 -24 -32 1 -43 34 -15 31 -50 -4 -50 -15 -1 -35 -9 -46 -18 -20 -19 -52
-23 -52 -7 0 6 -8 10 -17 10 -14 0 -15 -2 -5 -9 9 -5 11 -17 6 -34 -6 -25 -4
-27 25 -27 18 0 46 7 63 16 l31 16 -6 -30 c-8 -39 3 -48 25 -20 l18 23 0 -27
c0 -35 -10 -40 -49 -27 -35 12 -56 3 -28 -12 22 -13 22 -36 0 -43 -40 -12 -94
-10 -104 4 -27 43 -99 283 -99 331 0 13 10 20 34 25 40 7 56 0 56 -24 0 -16
50 -52 72 -52 12 0 48 39 48 52 0 4 6 8 14 8 7 0 19 7 26 15 23 27 33 17 28
-29z m2782 24 c0 -16 -4 -18 -22 -11 -32 12 -34 31 -4 31 19 0 26 -5 26 -20z
m-7406 -27 c11 -40 39 -44 62 -8 20 30 34 32 34 5 0 -22 10 -26 27 -9 8 8 13
8 18 0 3 -6 -1 -14 -10 -17 -12 -5 -14 -14 -10 -34 5 -21 1 -32 -13 -42 -11
-7 -22 -23 -26 -35 -9 -28 -83 -92 -116 -100 -14 -3 -34 -12 -45 -19 -24 -17
-66 -18 -100 -2 -30 14 -30 14 -6 62 19 36 19 66 0 66 -5 0 -9 5 -9 10 0 6 9
10 20 10 11 0 20 5 20 10 0 6 11 10 25 10 14 0 25 5 25 12 0 6 11 1 24 -11
l24 -23 12 22 c6 11 9 26 7 33 -2 7 2 20 11 29 13 16 13 18 -2 24 -25 9 -52
-4 -38 -18 16 -16 15 -28 -3 -28 -8 0 -15 3 -15 8 0 4 -10 12 -22 17 -32 15
-34 33 -3 28 18 -4 25 -1 25 10 0 19 17 27 50 24 18 -2 27 -10 34 -34z m1640
21 c16 -10 26 -12 31 -5 3 6 14 11 23 11 12 0 7 -9 -17 -29 -22 -18 -30 -30
-23 -35 19 -11 14 -24 -10 -28 -13 -2 -23 -9 -23 -17 0 -21 20 -24 38 -7 8 9
30 17 49 18 29 3 33 0 33 -22 1 -23 4 -25 41 -22 48 4 71 -15 55 -46 -8 -16
-5 -20 25 -31 19 -7 34 -17 34 -22 0 -5 -14 -2 -30 6 -17 9 -36 13 -42 9 -7
-4 -8 -3 -4 4 4 7 2 12 -4 12 -6 0 -27 11 -47 25 -20 13 -40 22 -45 19 -4 -3
-7 -34 -6 -70 1 -47 5 -64 15 -64 10 0 12 -6 7 -22 -5 -13 -8 -33 -7 -45 0
-13 -1 -23 -4 -23 -3 0 -13 10 -23 23 -19 22 -19 22 -33 2 -14 -18 -18 -19
-64 -6 -26 8 -75 17 -108 21 -87 10 -175 40 -175 59 1 28 36 85 44 72 5 -7 0
-21 -9 -31 -25 -28 -12 -54 22 -45 16 4 31 12 35 18 11 17 10 45 -2 50 -6 3
-5 4 2 3 7 -1 19 -15 28 -31 25 -46 40 -43 40 9 0 24 -4 48 -10 51 -16 10 -12
23 10 30 12 4 27 2 34 -4 10 -8 16 -5 24 15 7 14 12 30 12 37 0 7 14 20 30 29
36 21 43 68 10 68 -22 0 -27 15 -7 23 20 9 27 8 51 -9z m4706 1 c0 -8 -7 -15
-15 -15 -9 0 -12 6 -9 15 4 8 10 15 15 15 5 0 9 -7 9 -15z m-6160 -44 c-6 -12
-17 -21 -26 -21 -11 0 -10 7 8 31 24 32 37 25 18 -10z m1319 23 c11 -10 -12
-34 -33 -34 -21 0 -36 16 -36 41 0 7 58 2 69 -7z m-1909 -7 c0 -8 -12 -14 -30
-14 -33 0 -41 13 -12 20 32 9 42 7 42 -6z m230 9 c0 -7 -58 -66 -64 -66 -14 0
-4 23 20 45 24 22 44 32 44 21z m4086 -33 c15 -25 15 -26 -1 -20 -9 4 -33 7
-53 8 -32 0 -34 1 -14 9 12 5 22 16 22 24 0 22 25 10 46 -21z m-4188 -3 c-7
-11 -18 -20 -25 -20 -17 0 -16 5 3 24 22 23 37 20 22 -4z m1808 -12 c-9 -5
-16 -16 -16 -24 0 -8 -4 -12 -10 -9 -18 11 -11 42 13 52 26 12 39 -5 13 -19z
m4528 -28 c19 0 27 25 13 39 -6 6 -8 13 -5 17 4 3 12 -4 18 -16 9 -17 8 -25
-4 -39 -20 -22 -20 -45 0 -66 12 -12 19 -13 30 -4 17 14 18 71 2 87 -8 8 -9
12 -1 12 6 0 14 8 16 18 3 10 5 7 6 -10 1 -33 39 -62 67 -52 18 7 18 7 2 -13
-10 -11 -18 -25 -18 -32 0 -9 -8 -11 -21 -8 -12 3 -22 0 -26 -9 -6 -16 -49
-19 -58 -4 -4 6 -27 10 -51 9 -32 -2 -49 2 -62 15 -16 18 -15 18 20 13 31 -5
36 -3 31 11 -12 33 -26 42 -64 42 -28 0 -39 4 -39 15 0 18 5 19 30 3 16 -10
24 -9 47 9 l28 21 13 -29 c6 -16 18 -29 26 -29z m4006 40 c-18 -13 -27 -15
-32 -7 -14 21 -8 27 25 27 l32 0 -25 -20z m-7616 -16 c21 -20 20 -40 0 -48
-11 -4 -15 -2 -11 8 3 7 -1 23 -9 35 -18 24 -3 28 20 5z m3376 7 c0 -5 -7 -11
-15 -15 -9 -3 -15 0 -15 9 0 8 7 15 15 15 8 0 15 -4 15 -9z m2280 -20 c0 -18
8 -34 22 -43 13 -9 18 -19 14 -27 -6 -9 -11 -9 -23 0 -22 19 -45 69 -39 85 9
24 26 15 26 -15z m570 13 c0 -8 -4 -12 -10 -9 -5 3 -10 10 -10 16 0 5 5 9 10
9 6 0 10 -7 10 -16z m-2326 -25 c-8 -14 -44 -10 -44 5 0 9 8 12 25 8 14 -2 22
-8 19 -13z m-4900 -8 c17 -19 13 -46 -7 -54 -7 -2 -28 3 -47 10 -32 14 -33 16
-15 26 11 5 24 16 28 24 11 18 21 16 41 -6z m6760 -6 c20 -20 24 -31 19 -60
-5 -32 -16 -39 -19 -14 -1 5 -2 13 -3 18 0 5 -9 7 -20 4 -24 -6 -34 20 -19 52
6 14 13 25 14 25 2 0 14 -11 28 -25z m261 16 c3 -5 1 -12 -5 -16 -5 -3 -10 1
-10 9 0 18 6 21 15 7z m1605 -26 c0 -8 6 -15 13 -16 9 0 9 -2 -1 -6 -16 -6
-52 24 -52 44 0 11 4 11 20 3 11 -6 20 -17 20 -25z m-8120 5 c0 -11 -4 -20
-10 -20 -5 0 -10 9 -10 20 0 11 5 20 10 20 6 0 10 -9 10 -20z m441 -7 l24 -27
-24 15 c-14 9 -27 21 -29 27 -6 19 3 14 29 -15z m1002 7 c17 -8 26 -19 22 -28
-3 -7 -5 -20 -5 -27 0 -11 -6 -12 -32 -3 -46 15 -57 27 -36 39 10 6 15 16 11
26 -3 8 -2 14 3 12 5 -3 22 -11 37 -19z m4278 -11 c-9 -22 -10 -22 -10 -3 -1
11 2 24 6 27 12 12 14 0 4 -24z m-7931 15 c0 -10 -28 -34 -41 -34 -8 0 -5 7 6
20 17 19 35 26 35 14z m2786 -9 c4 -8 18 -15 33 -15 15 0 36 -7 47 -15 18 -13
16 -14 -28 -15 -26 0 -50 -4 -53 -10 -13 -22 -25 -8 -25 30 0 40 15 54 26 25z
m-3066 -5 c0 -5 -2 -10 -4 -10 -3 0 -8 5 -11 10 -3 6 -1 10 4 10 6 0 11 -4 11
-10z m3018 -32 c29 -29 -9 -69 -42 -45 -15 11 -15 14 -1 35 18 25 26 27 43 10z
m7353 -11 c-13 -13 -26 -3 -16 12 3 6 11 8 17 5 6 -4 6 -10 -1 -17z m-7491 -1
c0 -22 -11 -46 -21 -46 -4 0 -6 6 -3 14 3 8 1 17 -5 21 -18 10 -12 25 9 25 11
0 20 -6 20 -14z m7756 -44 c10 -19 -3 -27 -21 -12 -8 7 -15 27 -15 44 l0 31
15 -25 c8 -14 17 -31 21 -38z m-2006 38 c0 -5 -4 -10 -10 -10 -5 0 -10 5 -10
10 0 6 5 10 10 10 6 0 10 -4 10 -10z m-7420 -10 c0 -5 -9 -10 -21 -10 -11 0
-17 5 -14 10 3 6 13 10 21 10 8 0 14 -4 14 -10z m2800 0 c0 -5 -5 -10 -11 -10
-5 0 -7 5 -4 10 3 6 8 10 11 10 2 0 4 -4 4 -10z m4285 -1 c7 -10 -21 -49 -36
-49 -4 0 -17 14 -29 30 l-21 30 40 0 c22 0 43 -5 46 -11z m-5803 -24 c-2 -14
-6 -25 -8 -25 -2 0 -4 11 -4 25 0 14 4 25 9 25 4 0 6 -11 3 -25z m6347 -1 c3
-16 1 -17 -13 -5 -19 16 -21 34 -3 29 6 -3 14 -13 16 -24z m151 18 c0 -12 -23
-32 -37 -32 -7 0 -13 9 -13 20 0 15 7 20 25 20 14 0 25 -4 25 -8z m-3810 -6
c0 -2 -8 -10 -17 -17 -16 -13 -17 -12 -4 4 13 16 21 21 21 13z m-5550 -25 c14
-27 13 -31 -10 -31 -13 0 -18 5 -14 15 4 10 0 15 -11 15 -9 0 -13 5 -10 10 10
16 34 11 45 -9z m9160 -11 c0 -5 -4 -10 -10 -10 -5 0 -10 5 -10 10 0 6 5 10
10 10 6 0 10 -4 10 -10z m-2909 -21 c8 -16 6 -40 -11 -110 -30 -120 -45 -131
-53 -37 -6 68 1 131 17 157 11 18 34 13 47 -10z m3409 -15 c0 -16 -16 -19 -25
-4 -8 13 4 32 16 25 5 -4 9 -13 9 -21z m-6584 -11 c-10 -10 -19 5 -10 18 6 11
8 11 12 0 2 -7 1 -15 -2 -18z m1872 8 c3 -8 -1 -12 -9 -9 -7 2 -15 10 -17 17
-3 8 1 12 9 9 7 -2 15 -10 17 -17z m3255 -10 c15 -8 27 -20 27 -28 0 -15 -16
-17 -25 -3 -4 6 -16 2 -32 -10 -35 -27 -43 -17 -12 16 20 21 21 27 9 35 -18
13 -5 8 33 -10z m730 4 c1 -5 -6 -11 -15 -13 -11 -2 -18 3 -18 13 0 17 30 18
33 0z m1844 -6 c22 -8 24 -12 13 -19 -23 -15 -38 -12 -50 10 -12 23 -4 25 37
9z m389 -26 c-10 -10 -19 5 -10 18 6 11 8 11 12 0 2 -7 1 -15 -2 -18z m-4589
11 c-3 -3 -12 -4 -19 -1 -8 3 -5 6 6 6 11 1 17 -2 13 -5z m2100 -22 c-10 -10
-17 -29 -17 -43 -1 -22 -2 -22 -11 -5 -13 22 6 66 29 66 13 0 13 -3 -1 -18z
m63 3 c0 -8 -7 -15 -16 -15 -14 0 -14 3 -4 15 7 8 14 15 16 15 2 0 4 -7 4 -15z
m-5093 -20 c42 -25 42 -39 1 -31 -33 6 -48 20 -48 44 0 15 2 15 47 -13z m2436
4 c9 -32 -2 -52 -20 -38 -10 9 -17 9 -25 1 -16 -16 -28 -15 -28 2 0 14 45 56
60 56 4 0 10 -9 13 -21z m-2089 -14 c25 -38 19 -53 -9 -22 -14 15 -32 27 -40
27 -8 0 -15 5 -15 10 0 21 48 10 64 -15z m-484 -5 c0 -20 24 -28 34 -11 3 4
17 6 31 3 17 -3 25 -11 25 -26 -1 -21 -1 -21 -16 -1 -12 16 -18 18 -34 7 -11
-6 -26 -12 -34 -12 -17 0 -48 39 -40 52 10 16 34 8 34 -12z m607 -7 c10 -13
10 -18 1 -25 -8 -4 -16 0 -20 13 -6 15 -13 18 -33 13 -19 -5 -25 -2 -25 11 0
14 6 16 33 11 17 -3 38 -14 44 -23z m6638 -7 c-16 -12 -17 -16 -6 -30 14 -17
5 -21 -17 -7 -12 7 -11 14 3 41 12 24 20 29 28 21 8 -8 6 -15 -8 -25z m150 3
c10 -29 -1 -35 -25 -14 -25 23 -25 35 -1 35 11 0 23 -9 26 -21z m-5030 -10 c5
-15 13 -19 27 -16 14 4 18 2 14 -9 -3 -7 6 -25 19 -38 14 -14 25 -30 25 -36 0
-5 7 -10 15 -10 8 0 15 -7 15 -16 0 -13 5 -12 35 6 l34 21 33 -37 c57 -64 62
-73 49 -97 -42 -82 -229 -247 -302 -267 -36 -10 -104 -73 -128 -119 -17 -32
-28 -26 -61 32 -36 63 -37 80 -5 189 31 106 69 192 136 305 73 124 81 133 94
92z m3485 17 c0 -2 -3 -11 -6 -20 -9 -23 -24 -20 -24 4 0 11 7 20 15 20 8 0
15 -2 15 -4z m-5143 -38 c-3 -8 -6 -5 -6 6 -1 11 2 17 5 13 3 -3 4 -12 1 -19z
m4472 4 c-8 -13 -5 -30 15 -76 30 -68 30 -66 14 -66 -7 0 -23 30 -35 67 -21
62 -21 67 -5 79 23 18 24 17 11 -4z m421 -3 c0 -5 -4 -9 -10 -9 -5 0 -10 7
-10 16 0 8 5 12 10 9 6 -3 10 -10 10 -16z m815 0 c5 -14 13 -19 25 -16 10 2
24 1 31 -4 8 -4 17 -2 23 7 8 10 15 11 26 4 13 -9 13 -12 -3 -24 -15 -11 -17
-22 -12 -45 4 -21 3 -31 -5 -31 -6 0 -9 -8 -6 -17 3 -10 8 -31 11 -48 5 -26 5
-28 -7 -14 -14 17 -37 14 -54 -8 -10 -12 -15 -9 -28 18 -15 29 -15 33 1 44 11
8 13 14 5 19 -19 12 -14 25 8 19 30 -8 25 20 -10 60 -30 35 -38 57 -21 57 5 0
13 -9 16 -21z m165 -9 c-11 -20 -30 -28 -30 -12 0 11 22 32 32 32 5 0 4 -9 -2
-20z m-6020 -6 c0 -8 -4 -12 -10 -9 -5 3 -10 10 -10 16 0 5 5 9 10 9 6 0 10
-7 10 -16z m6770 7 c0 -12 -20 -25 -27 -18 -7 7 6 27 18 27 5 0 9 -4 9 -9z
m-7560 -10 c0 -4 11 -6 24 -4 15 3 25 -1 29 -11 8 -19 -3 -27 -29 -20 -22 6
-51 44 -34 44 5 0 10 -4 10 -9z m2740 -13 c0 -13 -23 -5 -28 10 -2 7 2 10 12
6 9 -3 16 -11 16 -16z m60 2 c0 -11 -2 -20 -3 -20 -2 0 -12 9 -22 20 -18 19
-17 20 3 20 15 0 22 -6 22 -20z m4857 -2 c-3 -8 -6 -5 -6 6 -1 11 2 17 5 13 3
-3 4 -12 1 -19z m-7691 -15 c-10 -10 -19 5 -10 18 6 11 8 11 12 0 2 -7 1 -15
-2 -18z m5872 15 c-6 -18 -28 -21 -28 -4 0 9 7 16 16 16 9 0 14 -5 12 -12z
m-778 -13 c7 -9 10 -18 7 -22 -8 -7 -37 15 -37 28 0 14 16 11 30 -6z m2402 -7
c-7 -7 -12 -8 -12 -2 0 14 12 26 19 19 2 -3 -1 -11 -7 -17z m-2562 -13 c0 -8
-4 -15 -10 -15 -5 0 -10 7 -10 15 0 8 5 15 10 15 6 0 10 -7 10 -15z m468 -18
c3 -24 0 -27 -25 -26 -15 0 -22 3 -15 6 6 2 12 16 12 30 0 33 24 25 28 -10z
m2304 -7 c-10 -16 -10 -26 -1 -43 8 -14 -1 -9 -25 15 -20 20 -36 40 -36 45 0
4 5 2 12 -5 19 -19 38 -14 38 10 0 17 3 19 12 10 10 -10 10 -17 0 -32z m-6922
-12 c0 -4 -4 -8 -10 -8 -5 0 -10 4 -10 9 0 5 -3 18 -6 28 -5 16 -4 16 10 -1 9
-11 16 -23 16 -28z m-786 7 c12 -18 14 -30 7 -42 -6 -11 -6 -24 0 -35 11 -20
-1 -24 -19 -6 -9 9 -13 7 -18 -5 -3 -9 -12 -17 -20 -17 -19 0 -18 10 3 25 15
11 15 15 3 30 -12 15 -12 18 3 26 9 6 17 19 17 29 0 26 4 25 24 -5z m186 -5
c0 -5 -4 -10 -10 -10 -5 0 -10 5 -10 10 0 6 5 10 10 10 6 0 10 -4 10 -10z
m7402 -21 c-2 -17 -8 -27 -13 -22 -9 9 -1 53 10 53 4 0 6 -14 3 -31z m-7470 9
c-17 -17 -15 -26 11 -34 l22 -8 -25 -7 c-55 -16 -59 -13 -42 26 9 19 23 35 31
35 12 0 12 -3 3 -12z m5822 -4 c4 -10 1 -14 -6 -12 -15 5 -23 28 -10 28 5 0
13 -7 16 -16z m-864 -39 c-11 -13 -10 -18 5 -29 12 -9 14 -15 7 -20 -17 -11
-42 46 -30 68 7 12 13 15 21 7 7 -7 6 -15 -3 -26z m1414 19 c4 -10 14 -14 26
-11 24 6 28 -21 4 -30 -17 -6 -67 35 -58 48 8 14 21 10 28 -7z m1133 -11 c-15
-16 -17 -16 -17 -1 0 9 6 18 13 21 20 7 22 -2 4 -20z m-2167 -32 c14 -27 13
-41 -4 -41 -8 0 -16 13 -18 30 -5 34 6 40 22 11z m895 -41 c-27 -30 -35 -25
-22 15 9 32 12 34 26 21 13 -14 13 -18 -4 -36z m1265 30 c0 -5 -4 -10 -10 -10
-5 0 -10 5 -10 10 0 6 5 10 10 10 6 0 10 -4 10 -10z m-1730 -39 c0 -12 -20
-25 -27 -18 -7 7 6 27 18 27 5 0 9 -4 9 -9z m1784 -38 c41 -44 40 -54 -2 -23
-17 13 -37 21 -44 18 -7 -2 -23 6 -35 19 l-22 23 34 0 c26 0 42 -8 69 -37z
m-7584 -12 c0 -5 2 -15 5 -23 7 -20 -20 -49 -39 -42 -21 8 -21 32 1 56 17 19
33 24 33 9z m6360 -54 c0 -8 -9 -22 -20 -32 -18 -16 -20 -16 -20 -2 0 10 5 17
11 17 6 0 9 7 5 15 -3 9 0 15 9 15 8 0 15 -6 15 -13z m154 3 c28 -10 35 -30
12 -30 -17 0 -66 39 -49 40 6 0 23 -4 37 -10z m1136 -22 c0 -18 -2 -20 -9 -8
-6 8 -7 18 -5 22 9 14 14 9 14 -14z m-914 -7 c-3 -5 -17 -11 -31 -13 -20 -4
-23 -3 -14 8 12 15 54 20 45 5z m-1441 -31 c-3 -5 -11 -10 -16 -10 -6 0 -7 5
-4 10 3 6 11 10 16 10 6 0 7 -4 4 -10z m1285 -19 c0 -6 -4 -13 -10 -16 -5 -3
-10 1 -10 9 0 9 5 16 10 16 6 0 10 -4 10 -9z m-1006 -22 c-27 -11 -74 -11 -74
0 0 10 68 20 84 12 5 -2 1 -8 -10 -12z m-595 -18 c-15 -5 -22 6 -14 19 6 9 10
9 16 -1 5 -8 4 -15 -2 -18z m211 15 c0 -3 -4 -8 -10 -11 -5 -3 -10 -1 -10 4 0
6 5 11 10 11 6 0 10 -2 10 -4z m-5300 -16 c0 -5 -7 -10 -16 -10 -8 0 -12 5 -9
10 3 6 10 10 16 10 5 0 9 -4 9 -10z m4960 -41 c0 -5 -4 -9 -10 -9 -5 0 -10 7
-10 16 0 8 5 12 10 9 6 -3 10 -10 10 -16z m178 -11 c-2 -6 -10 -14 -16 -16 -7
-2 -10 2 -6 12 7 18 28 22 22 4z m582 -8 c0 -11 -4 -20 -10 -20 -5 0 -10 9
-10 20 0 11 5 20 10 20 6 0 10 -9 10 -20z m40 -16 c0 -8 -5 -12 -10 -9 -6 4
-8 11 -5 16 9 14 15 11 15 -7z"/>
<path d="M7970 5280 c0 -5 5 -10 10 -10 6 0 10 5 10 10 0 6 -4 10 -10 10 -5 0
-10 -4 -10 -10z"/>
<path d="M5630 2805 c0 -8 7 -15 15 -15 8 0 15 7 15 15 0 8 -7 15 -15 15 -8 0
-15 -7 -15 -15z"/>
<path d="M5501 2611 c-8 -6 -11 -16 -7 -27 5 -12 10 -14 17 -7 16 16 7 45 -10
34z"/>
<path d="M6315 2710 c-8 -14 3 -30 21 -30 8 0 14 -9 14 -19 0 -26 17 -36 35
-21 21 18 18 39 -7 61 -25 20 -53 24 -63 9z"/>
<path d="M6435 2640 c-8 -13 6 -41 19 -37 17 6 19 34 2 40 -9 4 -18 2 -21 -3z"/>
<path d="M1720 6139 c0 -5 5 -7 10 -4 6 3 10 8 10 11 0 2 -4 4 -10 4 -5 0 -10
-5 -10 -11z"/>
<path d="M11186 5375 c-9 -46 -3 -52 30 -31 21 14 23 20 12 29 -7 7 -18 18
-24 25 -9 11 -13 6 -18 -23z"/>
<path d="M11510 4946 c0 -14 4 -36 10 -51 13 -33 37 -22 64 29 21 40 15 57
-14 38 -12 -7 -20 -8 -20 -2 0 5 -9 10 -20 10 -15 0 -20 -7 -20 -24z"/>
<path d="M11767 4503 c-8 -44 10 -62 31 -31 11 15 12 25 3 44 -15 34 -27 30
-34 -13z"/>
<path d="M85 3329 c-4 -6 -5 -13 -2 -16 7 -7 27 6 27 18 0 12 -17 12 -25 -2z"/>
<path d="M166 3315 c-3 -8 -1 -15 4 -15 6 0 10 7 10 15 0 8 -2 15 -4 15 -2 0
-6 -7 -10 -15z"/>
<path d="M497 2995 c-23 -17 -19 -48 7 -53 15 -3 18 0 13 17 -3 14 0 21 10 21
8 0 13 5 11 12 -6 18 -21 19 -41 3z"/>
<path d="M12654 2915 c-7 -18 3 -35 22 -35 15 0 17 9 8 34 -8 20 -23 21 -30 1z"/>
<path d="M9083 2634 c-3 -8 -1 -20 4 -25 12 -12 48 14 39 29 -10 17 -36 15
-43 -4z"/>
<path d="M9362 2570 c4 -26 1 -30 -19 -30 -13 0 -23 -6 -23 -14 0 -21 20 -30
33 -17 17 17 29 13 18 -6 -5 -10 -18 -18 -28 -18 -11 0 -19 -9 -21 -24 -4 -24
-3 -24 21 -8 18 12 27 13 36 4 8 -8 15 -7 28 6 15 14 15 21 5 37 -16 26 -15
29 8 23 17 -5 50 16 50 31 0 3 -15 6 -34 6 -25 0 -35 5 -39 20 -3 11 -13 20
-22 20 -13 0 -16 -7 -13 -30z"/>
<path d="M1189 2568 c-8 -7 -28 -30 -44 -52 l-28 -39 24 -18 c33 -26 53 -24
46 2 -7 26 2 79 13 79 4 0 10 -10 13 -22 6 -21 7 -21 25 -5 14 13 21 14 30 5
9 -9 13 -7 18 5 10 27 -4 50 -26 44 -11 -3 -23 -1 -26 4 -7 13 -28 11 -45 -3z"/>
<path d="M9451 2447 c-8 -10 -7 -18 2 -31 12 -16 14 -16 26 -2 14 16 9 46 -7
46 -5 0 -15 -6 -21 -13z"/>
<path d="M8976 2398 c-9 -12 -16 -28 -16 -34 0 -7 -10 -9 -25 -6 -20 3 -25 0
-25 -18 0 -17 4 -20 21 -15 19 6 20 3 18 -29 -4 -43 7 -56 25 -31 7 10 17 15
23 12 12 -8 53 46 53 69 0 12 -7 15 -30 12 -25 -4 -30 -2 -24 11 22 53 9 71
-20 29z"/>
<path d="M9430 2286 c0 -9 7 -16 16 -16 9 0 14 5 12 12 -6 18 -28 21 -28 4z"/>
<path d="M7980 2251 c-14 -27 -13 -31 8 -31 22 0 52 -53 45 -79 -4 -16 -1 -21
15 -21 11 0 25 7 32 15 7 8 19 15 26 15 17 0 19 26 3 36 -8 5 -6 10 5 16 20
11 21 28 2 28 -7 0 -16 9 -19 20 -3 11 -10 20 -16 20 -15 0 -14 -27 2 -33 6
-2 9 -8 5 -12 -5 -5 -16 -1 -26 8 -10 10 -24 17 -30 17 -7 0 -12 5 -12 10 0
18 -29 11 -40 -9z"/>
<path d="M4122 2028 c5 -32 28 -35 28 -4 0 17 -5 26 -16 26 -10 0 -14 -7 -12
-22z"/>
<path d="M9943 1782 c-3 -9 -15 -24 -26 -33 -22 -18 -16 -59 8 -59 14 0 55 67
55 89 0 18 -31 21 -37 3z"/>
</g>
</svg>
