<?xml version="1.0" encoding="UTF-8" standalone="no"?>
<!DOCTYPE svg PUBLIC "-//W3C//DTD SVG 1.1//EN" "http://www.w3.org/Graphics/SVG/1.1/DTD/svg11.dtd">
<svg xmlns="http://www.w3.org/2000/svg" version="1.1" viewBox="0.00 0.00 100.00 100.00">
<g stroke-width="2.00" fill="none" stroke-linecap="butt">
<path stroke="#89ca9f" vector-effect="non-scaling-stroke" d="
  M 100.00 15.63
  L 38.99 0.24
  Q 37.71 -0.09 37.71 1.24
  L 37.70 98.86
  Q 37.70 100.08 38.88 99.79
  L 47.62 97.66
  A 1.31 1.29 -5.0 0 0 48.61 96.50
  C 49.66 82.40 59.23 76.33 70.03 69.29
  Q 79.93 62.83 85.72 52.20
  Q 85.96 51.76 85.53 51.49
  L 85.31 51.35
  A 0.26 0.26 0.0 0 0 84.95 51.43
  Q 78.95 60.97 69.05 66.35
  C 62.00 70.17 55.09 73.73 50.75 80.66
  Q 49.95 81.95 50.10 80.44
  C 52.14 59.60 69.40 52.22 85.57 43.50
  C 90.29 40.95 93.74 38.66 95.72 34.37
  A 0.36 0.36 0.0 0 1 96.34 34.33
  Q 96.58 34.69 96.53 35.25
  C 95.04 50.44 89.38 71.16 77.65 81.40
  C 70.63 87.52 63.74 88.51 54.72 88.42
  A 0.99 0.98 -84.5 0 0 53.74 89.23
  L 52.79 94.57
  Q 52.47 96.38 54.24 95.93
  L 100.00 84.41"
/>
<path stroke="#b8dfc5" vector-effect="non-scaling-stroke" d="
  M 0.00 88.24
  L 0.25 89.35
  Q 0.37 89.87 0.87 89.69
  L 9.65 86.62
  Q 11.45 85.99 11.45 84.08
  L 11.46 15.87
  A 2.73 2.72 9.4 0 0 9.61 13.29
  L 0.88 10.35
  Q 0.40 10.19 0.29 10.69
  L 0.00 12.14"
/>
<path stroke="#a1d4b2" vector-effect="non-scaling-stroke" d="
  M 32.00 10.09
  A 0.86 0.86 0.0 0 0 31.40 9.27
  L 17.96 5.07
  A 0.86 0.86 0.0 0 0 16.84 5.89
  L 16.90 94.06
  A 0.86 0.86 0.0 0 0 18.01 94.88
  L 31.39 90.78
  A 0.86 0.86 0.0 0 0 32.00 89.95
  L 32.00 10.09"
/>
</g>
<path fill="#ffffff" d="
  M 0.00 0.00
  L 100.00 0.00
  L 100.00 15.63
  L 38.99 0.24
  Q 37.71 -0.09 37.71 1.24
  L 37.70 98.86
  Q 37.70 100.08 38.88 99.79
  L 47.62 97.66
  A 1.31 1.29 -5.0 0 0 48.61 96.50
  C 49.66 82.40 59.23 76.33 70.03 69.29
  Q 79.93 62.83 85.72 52.20
  Q 85.96 51.76 85.53 51.49
  L 85.31 51.35
  A 0.26 0.26 0.0 0 0 84.95 51.43
  Q 78.95 60.97 69.05 66.35
  C 62.00 70.17 55.09 73.73 50.75 80.66
  Q 49.95 81.95 50.10 80.44
  C 52.14 59.60 69.40 52.22 85.57 43.50
  C 90.29 40.95 93.74 38.66 95.72 34.37
  A 0.36 0.36 0.0 0 1 96.34 34.33
  Q 96.58 34.69 96.53 35.25
  C 95.04 50.44 89.38 71.16 77.65 81.40
  C 70.63 87.52 63.74 88.51 54.72 88.42
  A 0.99 0.98 -84.5 0 0 53.74 89.23
  L 52.79 94.57
  Q 52.47 96.38 54.24 95.93
  L 100.00 84.41
  L 100.00 100.00
  L 0.00 100.00
  L 0.00 88.24
  L 0.25 89.35
  Q 0.37 89.87 0.87 89.69
  L 9.65 86.62
  Q 11.45 85.99 11.45 84.08
  L 11.46 15.87
  A 2.73 2.72 9.4 0 0 9.61 13.29
  L 0.88 10.35
  Q 0.40 10.19 0.29 10.69
  L 0.00 12.14
  L 0.00 0.00
  Z
  M 32.00 10.09
  A 0.86 0.86 0.0 0 0 31.40 9.27
  L 17.96 5.07
  A 0.86 0.86 0.0 0 0 16.84 5.89
  L 16.90 94.06
  A 0.86 0.86 0.0 0 0 18.01 94.88
  L 31.39 90.78
  A 0.86 0.86 0.0 0 0 32.00 89.95
  L 32.00 10.09
  Z"
/>
<path fill="#13943e" d="
  M 100.00 15.63
  L 100.00 84.41
  L 54.24 95.93
  Q 52.47 96.38 52.79 94.57
  L 53.74 89.23
  A 0.99 0.98 -84.5 0 1 54.72 88.42
  C 63.74 88.51 70.63 87.52 77.65 81.40
  C 89.38 71.16 95.04 50.44 96.53 35.25
  Q 96.58 34.69 96.34 34.33
  A 0.36 0.36 0.0 0 0 95.72 34.37
  C 93.74 38.66 90.29 40.95 85.57 43.50
  C 69.40 52.22 52.14 59.60 50.10 80.44
  Q 49.95 81.95 50.75 80.66
  C 55.09 73.73 62.00 70.17 69.05 66.35
  Q 78.95 60.97 84.95 51.43
  A 0.26 0.26 0.0 0 1 85.31 51.35
  L 85.53 51.49
  Q 85.96 51.76 85.72 52.20
  Q 79.93 62.83 70.03 69.29
  C 59.23 76.33 49.66 82.40 48.61 96.50
  A 1.31 1.29 -5.0 0 1 47.62 97.66
  L 38.88 99.79
  Q 37.70 100.08 37.70 98.86
  L 37.71 1.24
  Q 37.71 -0.09 38.99 0.24
  L 100.00 15.63
  Z"
/>
<path fill="#42a965" d="
  M 32.00 10.09
  L 32.00 89.95
  A 0.86 0.86 0.0 0 1 31.39 90.78
  L 18.01 94.88
  A 0.86 0.86 0.0 0 1 16.90 94.06
  L 16.84 5.89
  A 0.86 0.86 0.0 0 1 17.96 5.07
  L 31.40 9.27
  A 0.86 0.86 0.0 0 1 32.00 10.09
  Z"
/>
<path fill="#71bf8b" d="
  M 0.00 88.24
  L 0.00 12.14
  L 0.29 10.69
  Q 0.40 10.19 0.88 10.35
  L 9.61 13.29
  A 2.73 2.72 9.4 0 1 11.46 15.87
  L 11.45 84.08
  Q 11.45 85.99 9.65 86.62
  L 0.87 89.69
  Q 0.37 89.87 0.25 89.35
  L 0.00 88.24
  Z"
/>
</svg>
