<?xml version="1.0" standalone="no"?>
<!DOCTYPE svg PUBLIC "-//W3C//DTD SVG 20010904//EN"
 "http://www.w3.org/TR/2001/REC-SVG-20010904/DTD/svg10.dtd">
<svg version="1.0" xmlns="http://www.w3.org/2000/svg"
 width="1280.000000pt" height="751.000000pt" viewBox="0 0 1280.000000 751.000000"
 preserveAspectRatio="xMidYMid meet">
<metadata>
Created by potrace 1.15, written by Peter Selinger 2001-2017
</metadata>
<g transform="translate(0.000000,751.000000) scale(0.100000,-0.100000)"
fill="#000000" stroke="none">
<path d="M7746 7483 c-3 -16 -5 -55 -4 -88 2 -79 -10 -99 -79 -125 -56 -21
-91 -22 -138 -4 -16 6 -15 1 8 -23 47 -50 59 -110 51 -247 -9 -149 -26 -195
-84 -221 -36 -16 -45 -17 -82 -4 -55 18 -128 77 -167 134 -17 25 -31 50 -31
56 0 5 -4 9 -9 9 -5 0 -7 -17 -5 -37 6 -51 -12 -82 -71 -121 -47 -32 -52 -33
-115 -27 -36 4 -76 14 -90 23 -49 31 -113 63 -117 58 -12 -11 55 -80 99 -102
27 -14 52 -32 55 -40 3 -8 0 -35 -7 -59 -10 -36 -10 -48 0 -60 18 -22 8 -120
-15 -145 -12 -14 -31 -20 -59 -20 -51 0 -37 -17 25 -31 55 -13 222 -131 278
-197 83 -100 84 -128 4 -216 -37 -41 -64 -61 -115 -82 -64 -26 -94 -53 -45
-41 101 25 203 29 472 18 454 -19 497 -19 578 11 96 35 101 30 207 -229 27
-68 50 -133 50 -145 1 -13 7 -34 15 -48 8 -14 15 -47 15 -75 0 -27 5 -68 10
-90 6 -22 19 -84 29 -137 11 -53 24 -106 30 -117 6 -11 11 -34 11 -51 0 -17 9
-48 20 -70 11 -22 20 -54 21 -72 0 -18 8 -53 18 -78 13 -35 21 -44 37 -42 10
2 21 5 23 7 5 5 -27 98 -66 194 -39 94 -59 173 -78 306 -27 192 -57 308 -112
435 -49 112 -83 204 -83 225 0 42 57 42 138 -1 15 -8 33 -14 40 -14 7 0 36
-10 63 -21 55 -24 67 -21 47 10 -9 16 -10 26 -2 39 11 18 94 67 154 92 19 8
67 34 106 58 57 34 71 47 67 62 -3 11 -15 22 -27 26 -11 3 -40 25 -63 47 -45
43 -54 77 -33 117 5 10 11 36 13 57 3 35 60 131 138 232 22 28 25 77 6 84 -8
3 -32 42 -55 87 -32 64 -44 99 -49 152 -8 87 -24 100 -79 63 -20 -14 -41 -25
-46 -25 -23 0 -87 42 -93 60 -9 29 -28 11 -43 -38 -13 -42 -41 -71 -120 -126
-52 -36 -55 -37 -73 -20 -10 9 -30 40 -43 68 -24 49 -31 86 -59 314 -6 53 -15
91 -21 89 -6 -2 -17 -17 -26 -33 -16 -29 -18 -29 -106 -30 l-89 -1 -34 39
c-24 27 -43 38 -62 38 -36 0 -86 43 -93 80 -3 17 -9 44 -12 60 -7 37 -21 39
-28 3z m390 -747 c8 -20 -24 -72 -51 -84 -33 -15 -55 3 -55 43 0 30 4 35 23
35 12 0 29 5 37 10 22 14 40 12 46 -4z"/>
<path d="M1349 7284 c-7 -9 -40 -34 -73 -55 -78 -51 -122 -50 -247 5 -13 6
-18 -1 -23 -36 -9 -58 -44 -131 -95 -198 -24 -30 -53 -79 -66 -107 -24 -52
-42 -64 -72 -45 -35 22 -146 129 -164 158 -12 20 -34 37 -54 44 -41 14 -85 67
-111 135 l-19 50 -3 -45 c-5 -89 -12 -109 -57 -155 -40 -40 -45 -50 -45 -92 0
-44 -3 -50 -68 -115 -75 -74 -91 -80 -157 -52 -20 8 -39 13 -41 11 -5 -5 73
-77 84 -77 4 0 16 -16 27 -36 10 -19 29 -41 41 -47 12 -7 40 -34 60 -62 21
-27 46 -56 56 -63 33 -24 40 -49 23 -81 -8 -17 -15 -39 -15 -51 0 -32 -42 -64
-119 -90 -64 -22 -74 -23 -136 -11 -37 6 -70 9 -73 6 -14 -13 18 -41 63 -56
27 -9 63 -28 81 -43 18 -14 38 -26 44 -26 6 0 32 -21 58 -47 70 -69 161 -143
176 -143 26 0 167 -70 219 -109 66 -49 109 -71 141 -71 13 0 32 -7 41 -17 20
-19 15 -85 -14 -198 -11 -38 -27 -135 -36 -215 -10 -80 -24 -161 -32 -180 -8
-19 -21 -89 -29 -155 -22 -182 -29 -217 -47 -252 -9 -18 -17 -38 -17 -46 0
-12 69 -41 78 -33 2 2 5 69 7 149 3 97 10 160 20 192 9 26 14 58 11 70 -3 13
3 63 13 112 11 48 27 144 36 213 10 69 25 145 35 170 9 25 20 63 24 85 15 86
15 86 119 59 99 -25 128 -32 189 -44 40 -8 70 -22 99 -46 45 -37 76 -45 64
-16 -16 39 -15 49 10 72 24 23 34 25 105 23 55 -1 92 -7 125 -22 58 -26 79
-27 71 -5 -11 29 32 81 88 108 55 26 81 33 153 43 58 8 75 29 31 38 -65 14
-136 55 -175 102 -54 66 -62 83 -52 110 14 39 2 51 -49 50 -36 -1 -59 5 -97
28 l-50 30 44 3 c33 3 49 -2 65 -17 19 -18 30 -20 68 -15 34 5 52 2 72 -11 24
-16 30 -16 69 -3 23 9 71 24 107 33 78 22 92 32 56 41 -36 9 -46 31 -46 102 0
70 26 137 71 182 17 17 29 33 27 36 -3 2 -27 -1 -55 -7 -44 -10 -55 -9 -99 10
-95 43 -252 38 -312 -10 -27 -21 -87 -26 -98 -8 -22 37 -30 105 -17 169 7 36
12 95 13 133 0 53 3 67 15 67 10 0 15 9 14 28 -1 15 2 35 6 45 6 14 -9 34 -65
90 l-73 72 6 77 c5 79 0 91 -24 62z"/>
<path d="M4747 6927 c-23 -7 -27 -13 -22 -31 3 -11 10 -77 14 -146 4 -69 13
-138 20 -155 7 -16 17 -55 22 -85 36 -202 41 -259 44 -510 3 -273 8 -336 31
-382 22 -42 16 -61 -27 -93 -23 -16 -63 -46 -90 -66 -27 -20 -67 -53 -89 -73
-22 -20 -49 -36 -60 -36 -17 0 -18 -3 -9 -23 9 -20 5 -33 -21 -78 -18 -30 -56
-82 -86 -116 -30 -33 -54 -65 -54 -71 0 -5 -15 -38 -34 -73 -18 -35 -39 -82
-46 -104 -7 -22 -28 -67 -46 -101 -39 -71 -46 -111 -15 -94 23 12 270 35 279
26 3 -4 7 -13 8 -20 1 -8 12 -27 24 -44 18 -25 21 -39 17 -88 -6 -92 -26 -173
-59 -243 -17 -37 -25 -68 -20 -73 5 -5 25 3 48 18 66 45 89 37 156 -54 39 -53
40 -55 40 -142 0 -55 5 -96 13 -106 11 -15 13 -14 19 12 11 43 35 64 73 64 73
0 124 -39 165 -125 30 -65 58 -73 58 -16 0 40 20 113 43 159 6 13 28 32 48 42
l36 19 7 86 c3 48 11 96 17 107 7 13 10 66 8 142 -4 110 -2 121 14 124 25 5
57 -26 57 -55 0 -16 26 -51 80 -108 84 -90 101 -116 131 -202 10 -29 24 -62
32 -74 14 -20 15 -19 25 10 16 46 53 64 144 69 67 4 86 1 122 -17 48 -23 80
-51 113 -96 30 -40 31 -10 1 48 -33 64 -37 99 -22 172 15 70 68 166 103 185
12 6 41 8 68 5 27 -4 59 -3 72 2 23 9 21 11 -30 42 -54 31 -115 73 -134 90
-19 17 -160 193 -164 204 -2 7 -11 30 -21 52 -15 35 -33 125 -25 125 11 0 83
-35 96 -46 8 -7 48 -20 88 -27 69 -14 72 -13 86 6 8 12 45 40 82 63 38 24 88
55 113 71 56 35 139 42 226 19 77 -20 80 -20 63 1 -8 9 -41 29 -74 44 -70 32
-108 69 -125 122 -6 21 -33 59 -61 86 -43 42 -49 54 -49 89 0 45 9 52 73 52
35 0 39 2 27 14 -21 19 -72 36 -155 52 -149 28 -181 35 -215 49 -19 8 -42 14
-50 12 -30 -4 -149 45 -186 77 -35 30 -39 38 -40 85 -3 84 -62 127 -119 87
-11 -7 -52 -19 -91 -25 -40 -6 -100 -24 -135 -41 -35 -16 -73 -30 -84 -30 -11
0 -42 -14 -70 -30 -27 -16 -60 -30 -73 -30 -34 0 -91 -32 -167 -94 -37 -31
-71 -56 -75 -56 -4 0 -15 24 -25 53 -21 63 -36 285 -33 482 2 144 -16 305 -49
435 -11 40 -19 126 -23 226 l-5 161 -28 -10z"/>
<path d="M10095 6183 c-10 -46 -58 -137 -92 -175 -30 -33 -69 -48 -124 -48
-51 0 -55 2 -102 52 -46 49 -50 51 -63 34 -7 -11 -16 -46 -20 -79 -8 -69 -33
-99 -91 -107 l-36 -5 39 -47 c21 -26 49 -61 62 -77 l23 -30 -26 -7 c-14 -3
-45 -1 -70 5 -55 14 -55 14 -49 -4 8 -20 93 -75 108 -69 14 5 36 -36 36 -67 0
-25 90 -116 124 -125 24 -6 19 -12 -93 -122 -102 -101 -186 -171 -275 -232
-11 -8 -46 -33 -76 -55 -30 -22 -80 -55 -111 -73 -48 -27 -69 -48 -69 -68 0
-2 14 -11 31 -20 26 -13 33 -14 40 -2 5 7 9 17 9 22 0 18 143 145 175 156 18
6 36 17 39 25 3 8 24 26 48 41 24 15 55 40 70 56 14 15 33 28 40 28 8 0 19 8
24 18 5 10 48 55 96 101 l87 83 21 -34 c11 -18 20 -38 20 -44 0 -6 10 -19 23
-30 34 -31 150 -100 179 -107 74 -19 117 -47 151 -97 19 -28 37 -48 40 -43 3
5 5 52 5 105 -1 122 7 137 100 172 61 24 76 26 126 18 31 -5 56 -6 56 -3 -1 3
-7 17 -15 31 -24 41 -18 73 18 108 35 34 81 52 132 52 29 0 29 0 10 18 -19 18
-131 64 -187 78 -16 3 -28 10 -28 15 0 11 -94 59 -115 59 -22 0 -30 27 -17 55
11 24 50 52 128 94 l39 21 -44 0 c-48 0 -160 56 -186 93 -17 25 -19 74 -5 113
13 33 8 39 -19 24 -18 -9 -31 -6 -77 20 -30 18 -61 45 -69 60 -21 41 -34 45
-40 13z"/>
<path d="M11952 4632 c-11 -26 -28 -71 -37 -99 -20 -62 -45 -83 -100 -83 -22
0 -50 -7 -62 -15 -24 -17 -43 -71 -43 -122 0 -18 -13 -73 -30 -123 -18 -55
-30 -113 -31 -148 0 -44 -7 -68 -28 -102 -38 -62 -53 -62 -89 3 -17 30 -50 71
-75 93 -24 21 -63 66 -86 99 -23 33 -49 63 -57 68 -7 4 -14 15 -14 23 0 9 -16
49 -36 91 -26 54 -38 94 -43 146 l-6 71 -27 -42 c-40 -59 -66 -73 -153 -79
l-76 -6 -65 64 -64 63 -70 -12 c-39 -7 -83 -12 -98 -12 -28 0 -107 44 -176 99
-21 17 -42 31 -47 31 -14 0 6 -42 49 -103 l39 -56 -3 -111 c-2 -62 -6 -121 -9
-131 -10 -32 -80 -131 -115 -164 -30 -29 -35 -30 -116 -28 -46 1 -84 -2 -84
-7 0 -4 17 -16 38 -25 94 -44 210 -147 280 -249 18 -27 42 -50 53 -53 11 -3
36 -33 55 -67 20 -33 55 -83 79 -111 23 -27 47 -59 53 -71 6 -12 27 -40 47
-63 55 -66 50 -72 -52 -65 -49 3 -104 11 -123 19 -177 67 -208 82 -251 121
-26 24 -65 48 -88 55 -22 7 -41 15 -41 19 0 4 -18 22 -41 40 l-41 33 7 -34 c6
-30 24 -63 89 -159 9 -14 34 -47 56 -75 22 -27 40 -58 40 -68 0 -10 7 -31 15
-47 l16 -30 -66 0 c-36 0 -65 -4 -65 -8 0 -5 -6 -16 -13 -26 -13 -17 -15 -17
-45 -2 -17 9 -40 16 -52 16 -12 0 -35 8 -53 17 -18 10 -48 22 -67 28 -19 6
-59 24 -87 40 -57 32 -70 65 -34 84 10 6 21 17 24 25 5 11 -13 14 -106 12
-112 -1 -172 4 -257 23 -87 18 -66 -4 64 -68 86 -43 112 -61 145 -103 43 -54
51 -89 32 -155 -9 -30 -8 -32 21 -38 54 -12 158 -127 158 -176 0 -26 -37 -66
-80 -85 -22 -10 -40 -21 -40 -26 0 -19 52 -37 145 -52 183 -29 312 -84 389
-166 l48 -52 -6 -59 c-4 -32 -16 -78 -26 -102 -11 -23 -20 -50 -20 -59 0 -9
-12 -30 -26 -47 -14 -17 -23 -35 -19 -41 12 -19 -7 -51 -47 -81 -23 -16 -46
-39 -52 -52 -6 -12 -22 -23 -34 -25 -12 -2 -35 -19 -50 -38 -18 -24 -43 -40
-79 -51 -107 -34 -40 -54 78 -24 46 12 94 21 107 21 13 0 37 11 54 25 45 38
127 36 191 -5 49 -31 52 -39 50 -135 0 -16 5 -14 26 14 65 86 106 118 203 160
83 36 103 42 138 36 31 -5 44 -14 56 -37 8 -16 13 -37 10 -45 -4 -9 -1 -22 5
-30 10 -11 19 -2 48 50 55 99 102 153 150 177 25 12 47 17 50 12 3 -5 20 -17
38 -26 46 -23 83 -76 83 -118 0 -20 -11 -75 -25 -122 -48 -165 -30 -156 62 32
46 95 90 168 123 207 28 33 63 80 78 105 14 25 43 71 63 103 20 31 42 80 49
107 7 28 15 50 18 50 4 0 34 -57 67 -126 36 -76 70 -133 85 -144 14 -10 32
-31 40 -47 8 -15 26 -39 40 -53 14 -15 48 -57 75 -94 28 -38 62 -81 76 -95 15
-15 36 -46 48 -69 12 -23 25 -42 30 -42 5 0 34 -33 64 -72 31 -40 69 -89 85
-108 17 -19 57 -89 91 -155 48 -94 61 -130 61 -165 0 -47 18 -83 49 -99 15 -8
17 -5 17 24 0 44 9 52 32 32 25 -23 32 -21 32 6 0 15 -17 39 -45 66 -32 30
-59 71 -94 146 -48 101 -123 205 -271 375 -31 36 -91 110 -133 165 -43 55
-102 131 -132 169 -30 37 -68 101 -85 142 -17 40 -40 89 -51 108 -11 19 -21
54 -22 78 l-2 43 64 -3 c42 -2 85 -12 125 -30 57 -25 71 -27 211 -28 83 0 156
4 163 9 16 13 15 27 -2 27 -8 0 -24 8 -37 18 -56 46 0 212 73 212 24 0 32 7
53 53 14 28 57 97 96 152 38 55 79 119 89 141 11 23 27 47 35 54 9 8 24 30 34
49 10 20 34 65 54 99 21 35 37 66 37 69 0 3 -15 3 -32 0 -18 -2 -53 1 -78 8
-25 7 -72 16 -105 20 -68 8 -205 41 -217 53 -4 4 5 26 20 47 25 37 28 50 35
185 4 80 9 163 11 185 3 31 -2 48 -21 72 -64 86 -78 184 -48 327 8 38 13 72
10 74 -2 3 -20 -9 -40 -27 -20 -17 -43 -31 -51 -31 -36 0 -170 75 -221 123
-75 70 -87 96 -79 168 4 31 3 60 -2 63 -5 3 -18 -16 -30 -42z m-133 -618 c17
-14 31 -33 31 -43 0 -9 13 -21 29 -27 19 -8 30 -20 34 -40 5 -28 0 -86 -10
-114 -3 -8 -5 -28 -4 -43 2 -25 -1 -28 -20 -25 -16 2 -26 13 -32 33 -5 17 -22
57 -38 90 -81 166 -76 242 10 169z m661 -753 c0 -5 -7 -14 -15 -21 -18 -15
-42 1 -31 19 8 13 46 15 46 2z m-2105 -260 c0 -8 -4 -16 -10 -18 -16 -5 -38
14 -30 26 9 16 40 9 40 -8z m-278 -77 c-3 -3 -12 -4 -19 -1 -8 3 -5 6 6 6 11
1 17 -2 13 -5z"/>
<path d="M4217 4630 c-4 -15 0 -34 10 -50 22 -32 27 -14 10 35 -13 36 -14 37
-20 15z"/>
<path d="M3768 2177 c4 -98 -19 -209 -59 -293 -11 -23 -22 -51 -24 -63 -2 -12
-14 -35 -26 -52 -15 -21 -22 -44 -21 -71 1 -22 -7 -56 -18 -78 -11 -22 -20
-45 -20 -52 0 -20 -56 -134 -84 -171 -13 -18 -33 -54 -45 -81 -22 -51 -28
-126 -10 -126 46 0 -88 -55 -256 -104 -83 -25 -180 -58 -265 -91 -19 -8 -78
-16 -130 -19 -81 -5 -167 -25 -205 -47 -5 -4 -28 -12 -50 -19 -22 -7 -69 -30
-105 -50 -36 -21 -95 -51 -131 -68 -74 -33 -85 -44 -64 -62 13 -10 13 -14 0
-27 -8 -8 -15 -21 -15 -29 0 -34 49 -4 127 77 68 72 253 169 320 169 23 0 54
5 70 11 15 6 69 17 119 24 50 7 106 20 125 28 35 16 133 44 204 58 22 4 83 23
135 43 150 56 140 65 140 -122 0 -87 3 -161 6 -165 3 -3 14 -1 24 5 25 16 62
-24 65 -71 6 -79 23 -178 38 -212 21 -51 15 -224 -9 -251 -10 -10 -14 -18 -9
-18 4 0 18 11 31 25 44 47 98 25 158 -64 43 -64 44 -69 27 -144 -7 -32 -10
-61 -7 -65 16 -15 29 24 36 110 9 109 20 146 53 190 14 18 30 52 36 76 13 47
41 70 92 78 49 7 81 -14 99 -65 11 -32 27 -53 60 -76 28 -20 46 -41 48 -56 7
-45 112 -169 144 -169 10 0 36 16 57 35 56 51 126 84 202 96 58 9 75 8 129
-10 34 -11 66 -18 71 -15 18 11 8 66 -17 100 l-27 34 18 48 c10 26 34 61 52
78 34 31 34 32 11 37 -91 23 -198 95 -198 132 0 12 -57 68 -77 76 -14 6 -59
70 -92 132 -24 44 -29 62 -21 72 7 8 47 15 108 19 53 4 121 13 150 22 74 21
222 22 297 1 32 -9 61 -15 63 -13 1 2 -5 20 -14 39 -16 33 -16 40 -1 89 9 29
19 67 22 84 6 33 91 184 103 184 18 1 32 18 26 33 -4 12 -18 17 -43 17 -41 0
-57 14 -105 89 -21 32 -27 52 -23 75 l5 31 -75 2 c-71 2 -77 5 -115 39 -36 32
-44 35 -82 30 -185 -25 -187 -25 -222 -1 l-32 22 25 44 c13 24 39 60 58 79 18
19 63 81 100 138 64 100 108 142 148 142 59 0 -53 59 -123 64 -25 2 -58 9 -75
16 -16 7 -70 17 -120 24 -82 10 -90 13 -93 34 -5 30 -28 28 -68 -8 -31 -26
-64 -40 -134 -54 -14 -3 -49 -26 -78 -51 -30 -25 -62 -45 -72 -45 -10 0 -35
-10 -55 -21 -39 -23 -44 -22 -143 24 -32 15 -68 66 -92 130 -11 30 -28 61 -38
70 -16 15 -17 10 -14 -76z"/>
</g>
</svg>
